M48
; DRILL file {KiCad 9.0.1} date 2025-10-14T14:14:29+0200
; FORMAT={-:-/ absolute / metric / decimal}
; #@! TF.CreationDate,2025-10-14T14:14:29+02:00
; #@! TF.GenerationSoftware,Kicad,Pcbnew,9.0.1
; #@! TF.FileFunction,Plated,1,2,PTH
FMAT,2
METRIC
; #@! TA.AperFunction,Plated,PTH,ComponentDrill
T1C0.600
; #@! TA.AperFunction,Plated,PTH,ComponentDrill
T2C0.750
; #@! TA.AperFunction,Plated,PTH,ComponentDrill
T3C0.800
; #@! TA.AperFunction,Plated,PTH,ComponentDrill
T4C1.000
%
G90
G05
T3
X88.5Y-114.5
X90.17Y-95.155
X90.17Y-97.155
X90.805Y-66.675
X90.805Y-68.675
X90.805Y-70.675
X90.805Y-72.675
X90.805Y-77.82
X90.805Y-79.82
X90.805Y-81.82
X90.805Y-83.82
X104.46Y-52.31
X106.585Y-84.99
X107.0Y-52.31
X108.585Y-84.99
X109.54Y-52.31
X112.935Y-85.09
X114.935Y-85.09
X118.015Y-56.515
X120.015Y-56.515
X120.015Y-85.09
X121.0Y-119.0
X121.92Y-105.41
X122.015Y-85.09
X123.92Y-105.41
T4
X118.0Y-52.5
X120.5Y-52.5
T1
G00X88.36Y-117.4
M15
G01X88.36Y-118.0
M16
G05
G00X88.36Y-121.2
M15
G01X88.36Y-121.8
M16
G05
G00X97.0Y-117.4
M15
G01X97.0Y-118.0
M16
G05
G00X97.0Y-121.2
M15
G01X97.0Y-121.8
M16
G05
G00X103.0Y-116.77
M15
G01X103.0Y-117.87
M16
G05
G00X103.0Y-121.1
M15
G01X103.0Y-121.9
M16
G05
G00X111.64Y-116.77
M15
G01X111.64Y-117.87
M16
G05
G00X111.64Y-121.1
M15
G01X111.64Y-121.9
M16
G05
G00X116.0Y-113.6
M15
G01X116.0Y-114.4
M16
G05
G00X126.0Y-114.4
M15
G01X126.0Y-113.6
M16
G05
T2
G00X118.5Y-113.625
M15
G01X118.5Y-114.375
M16
G05
G00X123.5Y-114.375
M15
G01X123.5Y-113.625
M16
G05
M30
