%TF.GenerationSoftware,KiCad,Pcbnew,9.0.1*%
%TF.CreationDate,2025-10-14T12:54:38+02:00*%
%TF.ProjectId,sstc-interrupter,73737463-2d69-46e7-9465-727275707465,rev?*%
%TF.SameCoordinates,Original*%
%TF.FileFunction,Copper,L2,Bot*%
%TF.FilePolarity,Positive*%
%FSLAX46Y46*%
G04 Gerber Fmt 4.6, Leading zero omitted, Abs format (unit mm)*
G04 Created by KiCad (PCBNEW 9.0.1) date 2025-10-14 12:54:38*
%MOMM*%
%LPD*%
G01*
G04 APERTURE LIST*
G04 Aperture macros list*
%AMRoundRect*
0 Rectangle with rounded corners*
0 $1 Rounding radius*
0 $2 $3 $4 $5 $6 $7 $8 $9 X,Y pos of 4 corners*
0 Add a 4 corners polygon primitive as box body*
4,1,4,$2,$3,$4,$5,$6,$7,$8,$9,$2,$3,0*
0 Add four circle primitives for the rounded corners*
1,1,$1+$1,$2,$3*
1,1,$1+$1,$4,$5*
1,1,$1+$1,$6,$7*
1,1,$1+$1,$8,$9*
0 Add four rect primitives between the rounded corners*
20,1,$1+$1,$2,$3,$4,$5,0*
20,1,$1+$1,$4,$5,$6,$7,0*
20,1,$1+$1,$6,$7,$8,$9,0*
20,1,$1+$1,$8,$9,$2,$3,0*%
G04 Aperture macros list end*
%TA.AperFunction,ComponentPad*%
%ADD10RoundRect,0.250000X-0.350000X-0.625000X0.350000X-0.625000X0.350000X0.625000X-0.350000X0.625000X0*%
%TD*%
%TA.AperFunction,ComponentPad*%
%ADD11O,1.200000X1.750000*%
%TD*%
%TA.AperFunction,ComponentPad*%
%ADD12RoundRect,0.250000X0.625000X-0.350000X0.625000X0.350000X-0.625000X0.350000X-0.625000X-0.350000X0*%
%TD*%
%TA.AperFunction,ComponentPad*%
%ADD13O,1.750000X1.200000*%
%TD*%
%TA.AperFunction,ComponentPad*%
%ADD14RoundRect,0.250000X0.350000X0.625000X-0.350000X0.625000X-0.350000X-0.625000X0.350000X-0.625000X0*%
%TD*%
%TA.AperFunction,HeatsinkPad*%
%ADD15O,1.000000X2.100000*%
%TD*%
%TA.AperFunction,HeatsinkPad*%
%ADD16O,1.000000X1.800000*%
%TD*%
%TA.AperFunction,HeatsinkPad*%
%ADD17O,1.100000X1.700000*%
%TD*%
%TA.AperFunction,ComponentPad*%
%ADD18R,1.700000X1.700000*%
%TD*%
%TA.AperFunction,ComponentPad*%
%ADD19C,1.700000*%
%TD*%
%TA.AperFunction,ComponentPad*%
%ADD20C,1.600000*%
%TD*%
%TA.AperFunction,ComponentPad*%
%ADD21R,1.308000X1.308000*%
%TD*%
%TA.AperFunction,ComponentPad*%
%ADD22C,1.308000*%
%TD*%
%TA.AperFunction,ComponentPad*%
%ADD23O,1.200000X2.200000*%
%TD*%
%TA.AperFunction,ComponentPad*%
%ADD24O,1.600000X2.300000*%
%TD*%
%TA.AperFunction,ComponentPad*%
%ADD25O,2.200000X1.200000*%
%TD*%
%TA.AperFunction,ComponentPad*%
%ADD26O,1.600000X2.500000*%
%TD*%
%TA.AperFunction,ComponentPad*%
%ADD27RoundRect,0.250000X-0.600000X-0.600000X0.600000X-0.600000X0.600000X0.600000X-0.600000X0.600000X0*%
%TD*%
%TA.AperFunction,SMDPad,CuDef*%
%ADD28RoundRect,0.237500X-0.237500X0.250000X-0.237500X-0.250000X0.237500X-0.250000X0.237500X0.250000X0*%
%TD*%
%TA.AperFunction,SMDPad,CuDef*%
%ADD29RoundRect,0.237500X0.300000X0.237500X-0.300000X0.237500X-0.300000X-0.237500X0.300000X-0.237500X0*%
%TD*%
%TA.AperFunction,SMDPad,CuDef*%
%ADD30RoundRect,0.237500X-0.250000X-0.237500X0.250000X-0.237500X0.250000X0.237500X-0.250000X0.237500X0*%
%TD*%
%TA.AperFunction,ViaPad*%
%ADD31C,0.500000*%
%TD*%
%TA.AperFunction,Conductor*%
%ADD32C,1.000000*%
%TD*%
%TA.AperFunction,Conductor*%
%ADD33C,0.600000*%
%TD*%
G04 APERTURE END LIST*
D10*
%TO.P,SW1,1,1*%
%TO.N,/trigger*%
X112935000Y-85090000D03*
D11*
%TO.P,SW1,2,2*%
%TO.N,GND*%
X114935000Y-85090000D03*
%TD*%
D12*
%TO.P,J2,1,Pin_1*%
%TO.N,GND*%
X90805000Y-83820000D03*
D13*
%TO.P,J2,2,Pin_2*%
%TO.N,+3V3*%
X90805000Y-81820000D03*
%TO.P,J2,3,Pin_3*%
%TO.N,/scl*%
X90805000Y-79820000D03*
%TO.P,J2,4,Pin_4*%
%TO.N,/sda*%
X90805000Y-77820000D03*
%TD*%
D10*
%TO.P,SW4,1,A*%
%TO.N,Net-(SW4-A)*%
X120015000Y-85090000D03*
D11*
%TO.P,SW4,2,B*%
%TO.N,Net-(D1-K)*%
X122015000Y-85090000D03*
%TD*%
D14*
%TO.P,D3,1,K*%
%TO.N,GND*%
X120015000Y-56515000D03*
D11*
%TO.P,D3,2,A*%
%TO.N,Net-(D3-A)*%
X118015000Y-56515000D03*
%TD*%
D15*
%TO.P,J1,S1,SHIELD*%
%TO.N,/shield*%
X103000000Y-117320000D03*
D16*
X103000000Y-121500000D03*
D15*
X111640000Y-117320000D03*
D16*
X111640000Y-121500000D03*
%TD*%
D17*
%TO.P,J5,S1,SHIELD*%
%TO.N,/shield*%
X88360000Y-117700000D03*
X88360000Y-121500000D03*
X97000000Y-117700000D03*
X97000000Y-121500000D03*
%TD*%
D18*
%TO.P,J4,1,Pin_1*%
%TO.N,GND*%
X120500000Y-52500000D03*
D19*
%TO.P,J4,2,Pin_2*%
%TO.N,/fiber_tx*%
X118000000Y-52500000D03*
%TD*%
D12*
%TO.P,SW2,1,S1*%
%TO.N,/re_sw*%
X90805000Y-72675000D03*
D13*
%TO.P,SW2,2,B*%
%TO.N,/re_b*%
X90805000Y-70675000D03*
%TO.P,SW2,3,A*%
%TO.N,/re_a*%
X90805000Y-68675000D03*
%TO.P,SW2,4,C*%
%TO.N,GND*%
X90805000Y-66675000D03*
%TD*%
D20*
%TO.P,C5,1*%
%TO.N,Net-(C5-Pad1)*%
X121920000Y-105410000D03*
%TO.P,C5,2*%
%TO.N,/jack_line*%
X123920000Y-105410000D03*
%TD*%
D21*
%TO.P,U2,1,GND*%
%TO.N,GND*%
X104460000Y-52310000D03*
D22*
%TO.P,U2,2,VCC*%
%TO.N,+3V3*%
X107000000Y-52310000D03*
%TO.P,U2,3,INPUT*%
%TO.N,/fiber_tx*%
X109540000Y-52310000D03*
%TD*%
D23*
%TO.P,J3,R*%
%TO.N,Net-(C5-Pad1)*%
X116000000Y-114000000D03*
D24*
%TO.P,J3,RN*%
%TO.N,unconnected-(J3-PadRN)*%
X118500000Y-114000000D03*
D25*
%TO.P,J3,S*%
%TO.N,GND*%
X121000000Y-119000000D03*
D23*
%TO.P,J3,T*%
%TO.N,Net-(C5-Pad1)*%
X126000000Y-114000000D03*
D26*
%TO.P,J3,TN*%
%TO.N,/jack_sw*%
X123500000Y-114000000D03*
%TD*%
D27*
%TO.P,J6,1,Pin_1*%
%TO.N,/shield*%
X88500000Y-114500000D03*
%TD*%
D12*
%TO.P,BT1,1,+*%
%TO.N,/bat+*%
X90170000Y-97155000D03*
D13*
%TO.P,BT1,2,-*%
%TO.N,/bat-*%
X90170000Y-95155000D03*
%TD*%
D10*
%TO.P,D2,1,A*%
%TO.N,Net-(D2-A)*%
X106585000Y-84990000D03*
D11*
%TO.P,D2,2,K*%
%TO.N,/trigger*%
X108585000Y-84990000D03*
%TD*%
D28*
%TO.P,R8,1*%
%TO.N,+3V3*%
X118110000Y-76280000D03*
%TO.P,R8,2*%
%TO.N,/jack_line*%
X118110000Y-78105000D03*
%TD*%
D29*
%TO.P,C4,1*%
%TO.N,+3V3*%
X106272500Y-54356000D03*
%TO.P,C4,2*%
%TO.N,GND*%
X104547500Y-54356000D03*
%TD*%
D30*
%TO.P,R6,1*%
%TO.N,+3V3*%
X103227500Y-87630000D03*
%TO.P,R6,2*%
%TO.N,Net-(D2-A)*%
X105052500Y-87630000D03*
%TD*%
D28*
%TO.P,R7,1*%
%TO.N,/fiber_tx*%
X114935000Y-53062500D03*
%TO.P,R7,2*%
%TO.N,Net-(D3-A)*%
X114935000Y-54887500D03*
%TD*%
%TO.P,R10,1*%
%TO.N,Net-(C5-Pad1)*%
X118110000Y-117000000D03*
%TO.P,R10,2*%
%TO.N,GND*%
X118110000Y-118825000D03*
%TD*%
D31*
%TO.N,GND*%
X90000000Y-51000000D03*
X99695000Y-120650000D03*
X99695000Y-118110000D03*
X97155000Y-63500000D03*
X114300000Y-102235000D03*
X116943249Y-63500000D03*
X97155000Y-93345000D03*
X105410000Y-106045000D03*
X125730000Y-100330000D03*
%TO.N,/jack_line*%
X118110000Y-78740000D03*
%TO.N,+3V3*%
X112395000Y-93980000D03*
X95250000Y-64135000D03*
%TO.N,/fiber_tx*%
X113665000Y-52310000D03*
%TO.N,/jack_sw*%
X115951000Y-83566000D03*
%TO.N,/bat-*%
X104762357Y-93345000D03*
X100076000Y-95250000D03*
%TO.N,Net-(J1-D--PadA7)*%
X107315000Y-113665000D03*
X95885000Y-88900000D03*
%TO.N,Net-(J1-D+-PadA6)*%
X108585000Y-112395000D03*
X97790000Y-88900000D03*
%TD*%
D32*
%TO.N,/jack_line*%
X123825000Y-105410000D02*
X123920000Y-105410000D01*
X123920000Y-84550000D02*
X118110000Y-78740000D01*
X123920000Y-104775000D02*
X123920000Y-84550000D01*
%TO.N,/trigger*%
X112935000Y-85090000D02*
X108685000Y-85090000D01*
%TO.N,+3V3*%
X107000000Y-67945000D02*
X107000000Y-52310000D01*
X111442500Y-73342500D02*
X111442500Y-75247500D01*
X114380000Y-76280000D02*
X111442500Y-73342500D01*
X118110000Y-76280000D02*
X114380000Y-76280000D01*
X95915000Y-64800000D02*
X95250000Y-64135000D01*
X101600000Y-85090000D02*
X101600000Y-86995000D01*
X111442500Y-75247500D02*
X101600000Y-85090000D01*
X97155000Y-66040000D02*
X95915000Y-64800000D01*
X108585000Y-93980000D02*
X101600000Y-86995000D01*
X101600000Y-86995000D02*
X96425000Y-81820000D01*
X104140000Y-66040000D02*
X97155000Y-66040000D01*
X107000000Y-68900000D02*
X104140000Y-66040000D01*
X108585000Y-93980000D02*
X112395000Y-93980000D01*
X111442500Y-73342500D02*
X107000000Y-68900000D01*
X96425000Y-81820000D02*
X90805000Y-81820000D01*
X107000000Y-68900000D02*
X107000000Y-67945000D01*
X107000000Y-68260000D02*
X107000000Y-67945000D01*
%TO.N,/fiber_tx*%
X109540000Y-52310000D02*
X117810000Y-52310000D01*
X117810000Y-52310000D02*
X118000000Y-52500000D01*
%TO.N,/jack_sw*%
X117475000Y-86360000D02*
X117475000Y-84455000D01*
X122555000Y-101917500D02*
X122555000Y-91440000D01*
X120015000Y-104457500D02*
X122555000Y-101917500D01*
X116586000Y-83566000D02*
X115951000Y-83566000D01*
X123500000Y-114000000D02*
X123500000Y-113340000D01*
X117475000Y-84455000D02*
X116586000Y-83566000D01*
X122555000Y-91440000D02*
X117475000Y-86360000D01*
X120015000Y-109855000D02*
X120015000Y-104457500D01*
X123500000Y-113340000D02*
X120015000Y-109855000D01*
%TO.N,/bat-*%
X100076000Y-95250000D02*
X101346000Y-93980000D01*
X104127357Y-93980000D02*
X104762357Y-93345000D01*
X101346000Y-93980000D02*
X104127357Y-93980000D01*
D33*
%TO.N,Net-(D3-A)*%
X117975000Y-56515000D02*
X118015000Y-56515000D01*
X116347500Y-54887500D02*
X117975000Y-56515000D01*
X114935000Y-54887500D02*
X116347500Y-54887500D01*
D32*
%TO.N,Net-(C5-Pad1)*%
X121920000Y-105410000D02*
X121920000Y-109220000D01*
X116000000Y-114000000D02*
X116000000Y-114730000D01*
X117475000Y-116205000D02*
X125095000Y-116205000D01*
X126000000Y-113300000D02*
X126000000Y-114000000D01*
X126000000Y-115300000D02*
X126000000Y-114000000D01*
X121920000Y-109220000D02*
X126000000Y-113300000D01*
X116000000Y-114730000D02*
X117475000Y-116205000D01*
X125095000Y-116205000D02*
X126000000Y-115300000D01*
D33*
%TO.N,Net-(D2-A)*%
X106585000Y-86097500D02*
X106585000Y-84990000D01*
X106585000Y-86097500D02*
X105052500Y-87630000D01*
%TO.N,Net-(J1-D--PadA7)*%
X107315000Y-113665000D02*
X95465000Y-101815000D01*
X95465000Y-89320000D02*
X95885000Y-88900000D01*
X95465000Y-101815000D02*
X95465000Y-89320000D01*
%TO.N,Net-(J1-D+-PadA6)*%
X108585000Y-112395000D02*
X107177786Y-112395000D01*
X107177786Y-112395000D02*
X96266000Y-101483214D01*
X96266000Y-101483214D02*
X96266000Y-90424000D01*
X96266000Y-90424000D02*
X97790000Y-88900000D01*
%TD*%
%TA.AperFunction,Conductor*%
%TO.N,GND*%
G36*
X123817057Y-44520462D02*
G01*
X123871595Y-44575000D01*
X123891557Y-44649500D01*
X123871595Y-44724000D01*
X123817057Y-44778538D01*
X123799578Y-44787157D01*
X123747422Y-44808761D01*
X123679783Y-44836778D01*
X123469712Y-44958063D01*
X123469711Y-44958064D01*
X123277262Y-45105735D01*
X123277260Y-45105736D01*
X123277256Y-45105740D01*
X123105740Y-45277256D01*
X122958063Y-45469712D01*
X122836778Y-45679783D01*
X122743947Y-45903896D01*
X122681160Y-46138218D01*
X122649500Y-46378706D01*
X122649500Y-46621293D01*
X122681160Y-46861781D01*
X122681161Y-46861787D01*
X122681162Y-46861789D01*
X122743946Y-47096100D01*
X122836776Y-47320212D01*
X122958064Y-47530289D01*
X123105735Y-47722738D01*
X123277262Y-47894265D01*
X123469711Y-48041936D01*
X123679788Y-48163224D01*
X123903900Y-48256054D01*
X124138211Y-48318838D01*
X124138217Y-48318838D01*
X124138218Y-48318839D01*
X124203600Y-48327446D01*
X124378712Y-48350500D01*
X124621288Y-48350500D01*
X124861789Y-48318838D01*
X125096100Y-48256054D01*
X125320212Y-48163224D01*
X125530289Y-48041936D01*
X125722738Y-47894265D01*
X125894265Y-47722738D01*
X126041936Y-47530289D01*
X126163224Y-47320212D01*
X126212843Y-47200420D01*
X126259794Y-47139232D01*
X126331052Y-47109717D01*
X126407520Y-47119784D01*
X126468710Y-47166736D01*
X126498225Y-47237994D01*
X126499500Y-47257442D01*
X126499500Y-107742557D01*
X126479538Y-107817057D01*
X126425000Y-107871595D01*
X126350500Y-107891557D01*
X126276000Y-107871595D01*
X126221462Y-107817057D01*
X126212842Y-107799577D01*
X126197279Y-107762005D01*
X126163224Y-107679788D01*
X126041936Y-107469711D01*
X125894265Y-107277262D01*
X125722738Y-107105735D01*
X125530289Y-106958064D01*
X125341217Y-106848903D01*
X125320216Y-106836778D01*
X125320214Y-106836777D01*
X125320212Y-106836776D01*
X125149126Y-106765910D01*
X125096103Y-106743947D01*
X125096101Y-106743946D01*
X125096100Y-106743946D01*
X124861789Y-106681162D01*
X124861787Y-106681161D01*
X124861781Y-106681160D01*
X124682641Y-106657576D01*
X124611384Y-106628061D01*
X124564431Y-106566871D01*
X124554364Y-106490403D01*
X124583879Y-106419146D01*
X124614503Y-106389313D01*
X124702073Y-106325690D01*
X124835690Y-106192073D01*
X124946760Y-106039199D01*
X125032547Y-105870832D01*
X125090940Y-105691118D01*
X125120500Y-105504481D01*
X125120500Y-105315519D01*
X125090940Y-105128882D01*
X125032547Y-104949168D01*
X124946760Y-104780801D01*
X124848957Y-104646187D01*
X124821316Y-104574182D01*
X124820500Y-104558607D01*
X124820500Y-84461308D01*
X124808167Y-84399306D01*
X124804179Y-84379258D01*
X124785895Y-84287334D01*
X124724881Y-84140035D01*
X124718013Y-84123453D01*
X124630544Y-83992547D01*
X124619464Y-83975964D01*
X119029140Y-78385640D01*
X118990576Y-78318845D01*
X118985499Y-78280281D01*
X118985499Y-77790577D01*
X118985499Y-77790572D01*
X118985499Y-77790566D01*
X118982654Y-77754402D01*
X118937681Y-77599606D01*
X118855626Y-77460857D01*
X118741643Y-77346874D01*
X118741642Y-77346873D01*
X118741639Y-77346871D01*
X118697471Y-77320751D01*
X118643507Y-77265646D01*
X118624325Y-77190941D01*
X118645066Y-77116654D01*
X118697471Y-77064249D01*
X118733638Y-77042860D01*
X118741643Y-77038126D01*
X118855626Y-76924143D01*
X118937681Y-76785394D01*
X118982654Y-76630598D01*
X118985500Y-76594435D01*
X118985499Y-76509050D01*
X118988362Y-76479980D01*
X119010500Y-76368691D01*
X119010500Y-76191309D01*
X118988362Y-76080015D01*
X118985499Y-76050946D01*
X118985499Y-75965577D01*
X118985499Y-75965566D01*
X118982654Y-75929402D01*
X118937681Y-75774606D01*
X118855626Y-75635857D01*
X118741643Y-75521874D01*
X118681970Y-75486584D01*
X118602893Y-75439818D01*
X118448106Y-75394847D01*
X118448101Y-75394846D01*
X118438235Y-75394069D01*
X118411935Y-75392000D01*
X118411927Y-75392000D01*
X118276208Y-75392000D01*
X118247140Y-75389137D01*
X118198691Y-75379500D01*
X114814717Y-75379500D01*
X114740217Y-75359538D01*
X114709358Y-75335859D01*
X114186281Y-74812782D01*
X112016536Y-72643036D01*
X112016533Y-72643034D01*
X107944141Y-68570641D01*
X107905577Y-68503846D01*
X107900500Y-68465282D01*
X107900500Y-52905554D01*
X107920462Y-52831054D01*
X107925596Y-52822796D01*
X107934486Y-52809493D01*
X108013976Y-52617586D01*
X108054500Y-52413859D01*
X108054500Y-52206141D01*
X108054500Y-52206140D01*
X108485500Y-52206140D01*
X108485500Y-52413859D01*
X108526023Y-52617583D01*
X108526024Y-52617587D01*
X108605510Y-52809485D01*
X108605514Y-52809493D01*
X108710039Y-52965925D01*
X108720917Y-52982204D01*
X108867796Y-53129083D01*
X109040507Y-53244486D01*
X109232414Y-53323976D01*
X109436141Y-53364500D01*
X109643859Y-53364500D01*
X109847586Y-53323976D01*
X110039493Y-53244486D01*
X110052775Y-53235610D01*
X110125807Y-53210819D01*
X110135554Y-53210500D01*
X113910501Y-53210500D01*
X113985001Y-53230462D01*
X114039539Y-53285000D01*
X114059501Y-53359500D01*
X114059501Y-53376940D01*
X114062345Y-53413093D01*
X114062345Y-53413096D01*
X114062346Y-53413098D01*
X114095821Y-53528319D01*
X114107320Y-53567896D01*
X114126228Y-53599868D01*
X114189374Y-53706643D01*
X114303357Y-53820626D01*
X114344209Y-53844785D01*
X114347529Y-53846749D01*
X114401493Y-53901855D01*
X114420674Y-53976560D01*
X114399933Y-54050847D01*
X114347529Y-54103251D01*
X114303358Y-54129373D01*
X114303355Y-54129375D01*
X114189375Y-54243355D01*
X114189373Y-54243358D01*
X114107318Y-54382106D01*
X114062347Y-54536893D01*
X114062346Y-54536898D01*
X114062346Y-54536902D01*
X114059500Y-54573065D01*
X114059500Y-54573071D01*
X114059500Y-54573072D01*
X114059500Y-55201922D01*
X114059501Y-55201940D01*
X114062345Y-55238093D01*
X114062345Y-55238096D01*
X114062346Y-55238098D01*
X114107319Y-55392894D01*
X114189374Y-55531643D01*
X114303357Y-55645626D01*
X114411120Y-55709356D01*
X114442106Y-55727681D01*
X114596893Y-55772652D01*
X114596898Y-55772653D01*
X114596902Y-55772654D01*
X114633065Y-55775500D01*
X115236934Y-55775499D01*
X115273098Y-55772654D01*
X115427894Y-55727681D01*
X115566643Y-55645626D01*
X115580628Y-55631641D01*
X115647423Y-55593077D01*
X115685987Y-55588000D01*
X115995625Y-55588000D01*
X116070125Y-55607962D01*
X116100984Y-55631641D01*
X116970859Y-56501516D01*
X117009423Y-56568311D01*
X117014500Y-56606875D01*
X117014500Y-56888539D01*
X117052948Y-57081834D01*
X117052949Y-57081836D01*
X117128367Y-57263912D01*
X117128368Y-57263915D01*
X117147485Y-57292525D01*
X117237861Y-57427782D01*
X117377218Y-57567139D01*
X117462197Y-57623920D01*
X117541084Y-57676631D01*
X117541085Y-57676631D01*
X117541086Y-57676632D01*
X117723165Y-57752051D01*
X117916459Y-57790500D01*
X117916460Y-57790500D01*
X118113540Y-57790500D01*
X118113541Y-57790500D01*
X118306835Y-57752051D01*
X118488914Y-57676632D01*
X118652782Y-57567139D01*
X118792139Y-57427782D01*
X118882515Y-57292523D01*
X118940502Y-57241671D01*
X119016148Y-57226624D01*
X119089183Y-57251416D01*
X119140037Y-57309404D01*
X119145014Y-57320643D01*
X119181077Y-57412092D01*
X119181079Y-57412095D01*
X119272433Y-57532562D01*
X119272437Y-57532566D01*
X119392904Y-57623920D01*
X119392903Y-57623920D01*
X119533558Y-57679386D01*
X119533555Y-57679386D01*
X119564999Y-57683161D01*
X119565000Y-57683161D01*
X120465000Y-57683161D01*
X120496442Y-57679386D01*
X120637096Y-57623920D01*
X120757562Y-57532566D01*
X120757566Y-57532562D01*
X120848920Y-57412096D01*
X120904386Y-57271443D01*
X120914999Y-57183060D01*
X120915000Y-57183058D01*
X120915000Y-56965000D01*
X120465000Y-56965000D01*
X120465000Y-57683161D01*
X119565000Y-57683161D01*
X119565000Y-56462339D01*
X119615000Y-56462339D01*
X119615000Y-56567661D01*
X119642259Y-56669394D01*
X119694920Y-56760606D01*
X119769394Y-56835080D01*
X119860606Y-56887741D01*
X119962339Y-56915000D01*
X120067661Y-56915000D01*
X120169394Y-56887741D01*
X120260606Y-56835080D01*
X120335080Y-56760606D01*
X120387741Y-56669394D01*
X120415000Y-56567661D01*
X120415000Y-56462339D01*
X120387741Y-56360606D01*
X120335080Y-56269394D01*
X120260606Y-56194920D01*
X120169394Y-56142259D01*
X120067661Y-56115000D01*
X119962339Y-56115000D01*
X119860606Y-56142259D01*
X119769394Y-56194920D01*
X119694920Y-56269394D01*
X119642259Y-56360606D01*
X119615000Y-56462339D01*
X119565000Y-56462339D01*
X119565000Y-56065000D01*
X120465000Y-56065000D01*
X120915000Y-56065000D01*
X120915000Y-55846941D01*
X120914999Y-55846939D01*
X120904386Y-55758556D01*
X120848920Y-55617903D01*
X120757566Y-55497437D01*
X120757562Y-55497433D01*
X120637095Y-55406079D01*
X120637096Y-55406079D01*
X120496447Y-55350615D01*
X120465000Y-55346837D01*
X120465000Y-56065000D01*
X119565000Y-56065000D01*
X119565000Y-55346837D01*
X119533552Y-55350615D01*
X119392904Y-55406079D01*
X119272437Y-55497433D01*
X119272433Y-55497437D01*
X119181079Y-55617904D01*
X119181076Y-55617907D01*
X119145014Y-55709356D01*
X119099113Y-55771338D01*
X119028370Y-55802066D01*
X118951741Y-55793305D01*
X118889759Y-55747404D01*
X118882514Y-55737474D01*
X118792139Y-55602218D01*
X118652782Y-55462861D01*
X118548069Y-55392894D01*
X118488915Y-55353368D01*
X118488912Y-55353367D01*
X118306836Y-55277949D01*
X118306834Y-55277948D01*
X118151989Y-55247147D01*
X118113541Y-55239500D01*
X117916459Y-55239500D01*
X117805814Y-55261508D01*
X117728851Y-55256463D01*
X117671387Y-55220730D01*
X116794046Y-54343389D01*
X116794043Y-54343386D01*
X116679311Y-54266725D01*
X116679308Y-54266723D01*
X116679302Y-54266720D01*
X116551829Y-54213920D01*
X116551827Y-54213919D01*
X116416497Y-54187000D01*
X116416494Y-54187000D01*
X116416493Y-54187000D01*
X115685987Y-54187000D01*
X115611487Y-54167038D01*
X115599037Y-54158999D01*
X115589196Y-54151927D01*
X115566643Y-54129374D01*
X115516753Y-54099869D01*
X115511367Y-54095999D01*
X115491002Y-54071116D01*
X115468507Y-54048146D01*
X115466817Y-54041568D01*
X115462517Y-54036313D01*
X115457321Y-54004585D01*
X115449325Y-53973441D01*
X115451151Y-53966899D01*
X115450054Y-53960198D01*
X115461420Y-53930119D01*
X115470066Y-53899154D01*
X115474978Y-53894241D01*
X115477318Y-53888050D01*
X115498535Y-53870684D01*
X115522471Y-53846749D01*
X115527602Y-53843714D01*
X115566643Y-53820626D01*
X115680626Y-53706643D01*
X115762681Y-53567894D01*
X115795822Y-53453825D01*
X115807652Y-53413106D01*
X115807653Y-53413101D01*
X115807652Y-53413101D01*
X115807654Y-53413098D01*
X115810500Y-53376935D01*
X115810500Y-53359500D01*
X115830462Y-53285000D01*
X115885000Y-53230462D01*
X115959500Y-53210500D01*
X116894587Y-53210500D01*
X116969087Y-53230462D01*
X117015126Y-53271916D01*
X117046172Y-53314646D01*
X117185354Y-53453828D01*
X117344595Y-53569524D01*
X117519975Y-53658884D01*
X117707174Y-53719709D01*
X117901583Y-53750500D01*
X117901588Y-53750500D01*
X118098412Y-53750500D01*
X118098417Y-53750500D01*
X118292826Y-53719709D01*
X118480025Y-53658884D01*
X118655405Y-53569524D01*
X118814646Y-53453828D01*
X118953828Y-53314646D01*
X119069524Y-53155405D01*
X119069530Y-53155391D01*
X119072585Y-53150410D01*
X119074153Y-53151371D01*
X119119804Y-53100634D01*
X119193149Y-53076774D01*
X119268597Y-53092783D01*
X119325933Y-53144371D01*
X119349793Y-53217716D01*
X119350000Y-53225566D01*
X119350000Y-53394794D01*
X119352909Y-53419874D01*
X119398212Y-53522477D01*
X119477521Y-53601786D01*
X119580128Y-53647091D01*
X119605204Y-53649999D01*
X120050000Y-53649999D01*
X120950000Y-53649999D01*
X121394795Y-53649999D01*
X121419874Y-53647090D01*
X121522477Y-53601787D01*
X121522478Y-53601787D01*
X121601786Y-53522478D01*
X121647091Y-53419871D01*
X121650000Y-53394795D01*
X121650000Y-52950000D01*
X120950000Y-52950000D01*
X120950000Y-53649999D01*
X120050000Y-53649999D01*
X120050000Y-52720575D01*
X120099901Y-52807007D01*
X120192993Y-52900099D01*
X120307007Y-52965925D01*
X120434174Y-53000000D01*
X120565826Y-53000000D01*
X120692993Y-52965925D01*
X120807007Y-52900099D01*
X120900099Y-52807007D01*
X120965925Y-52692993D01*
X121000000Y-52565826D01*
X121000000Y-52434174D01*
X120965925Y-52307007D01*
X120900099Y-52192993D01*
X120807007Y-52099901D01*
X120720576Y-52050000D01*
X120950000Y-52050000D01*
X121649999Y-52050000D01*
X121649999Y-51605205D01*
X121647090Y-51580125D01*
X121601787Y-51477522D01*
X121522478Y-51398213D01*
X121419871Y-51352908D01*
X121394796Y-51350000D01*
X120950000Y-51350000D01*
X120950000Y-52050000D01*
X120720576Y-52050000D01*
X120692993Y-52034075D01*
X120565826Y-52000000D01*
X120434174Y-52000000D01*
X120307007Y-52034075D01*
X120192993Y-52099901D01*
X120099901Y-52192993D01*
X120050000Y-52279424D01*
X120050000Y-51350000D01*
X119605205Y-51350000D01*
X119580125Y-51352909D01*
X119477522Y-51398212D01*
X119477522Y-51398213D01*
X119398213Y-51477521D01*
X119352908Y-51580128D01*
X119350000Y-51605204D01*
X119350000Y-51774430D01*
X119330038Y-51848930D01*
X119275500Y-51903468D01*
X119201000Y-51923430D01*
X119126500Y-51903468D01*
X119072607Y-51849575D01*
X119072585Y-51849590D01*
X119072526Y-51849494D01*
X119071962Y-51848930D01*
X119070262Y-51845799D01*
X119069527Y-51844602D01*
X119069524Y-51844595D01*
X118953828Y-51685354D01*
X118814646Y-51546172D01*
X118655405Y-51430476D01*
X118582364Y-51393260D01*
X118480036Y-51341121D01*
X118480030Y-51341119D01*
X118480025Y-51341116D01*
X118292826Y-51280291D01*
X118098417Y-51249500D01*
X117901583Y-51249500D01*
X117707174Y-51280291D01*
X117519975Y-51341116D01*
X117417635Y-51393260D01*
X117349992Y-51409500D01*
X110135554Y-51409500D01*
X110061054Y-51389538D01*
X110052796Y-51384403D01*
X110039493Y-51375514D01*
X110039490Y-51375512D01*
X110039486Y-51375510D01*
X109847587Y-51296024D01*
X109847583Y-51296023D01*
X109643859Y-51255500D01*
X109436141Y-51255500D01*
X109232416Y-51296023D01*
X109232412Y-51296024D01*
X109040514Y-51375510D01*
X109040506Y-51375514D01*
X108867799Y-51490914D01*
X108867794Y-51490918D01*
X108720918Y-51637794D01*
X108720914Y-51637799D01*
X108605514Y-51810506D01*
X108605510Y-51810514D01*
X108526024Y-52002412D01*
X108526023Y-52002416D01*
X108485500Y-52206140D01*
X108054500Y-52206140D01*
X108013976Y-52002414D01*
X107934486Y-51810507D01*
X107819083Y-51637796D01*
X107672204Y-51490917D01*
X107661135Y-51483521D01*
X107499493Y-51375514D01*
X107499485Y-51375510D01*
X107307587Y-51296024D01*
X107307583Y-51296023D01*
X107103859Y-51255500D01*
X106896141Y-51255500D01*
X106692416Y-51296023D01*
X106692412Y-51296024D01*
X106500514Y-51375510D01*
X106500506Y-51375514D01*
X106327799Y-51490914D01*
X106327794Y-51490918D01*
X106180918Y-51637794D01*
X106180914Y-51637799D01*
X106065514Y-51810506D01*
X106065510Y-51810514D01*
X105986024Y-52002412D01*
X105986023Y-52002416D01*
X105945500Y-52206140D01*
X105945500Y-52413859D01*
X105986023Y-52617583D01*
X105986024Y-52617587D01*
X106065510Y-52809486D01*
X106065512Y-52809490D01*
X106065514Y-52809493D01*
X106074389Y-52822775D01*
X106099181Y-52895807D01*
X106099500Y-52905554D01*
X106099500Y-53331500D01*
X106079538Y-53406000D01*
X106025000Y-53460538D01*
X105950503Y-53480500D01*
X105908079Y-53480500D01*
X105908059Y-53480501D01*
X105871906Y-53483345D01*
X105871902Y-53483346D01*
X105717103Y-53528320D01*
X105578358Y-53610373D01*
X105578355Y-53610375D01*
X105464369Y-53724361D01*
X105461477Y-53728090D01*
X105458009Y-53730721D01*
X105457745Y-53730986D01*
X105457708Y-53730949D01*
X105400039Y-53774717D01*
X105323519Y-53784379D01*
X105252419Y-53754486D01*
X105239242Y-53741171D01*
X105238350Y-53742064D01*
X105231141Y-53734855D01*
X105113410Y-53645578D01*
X105113410Y-53645577D01*
X104997500Y-53599868D01*
X104997500Y-55112130D01*
X105113410Y-55066421D01*
X105231141Y-54977144D01*
X105238350Y-54969936D01*
X105241227Y-54972813D01*
X105284821Y-54938389D01*
X105361141Y-54927258D01*
X105432802Y-54955780D01*
X105461481Y-54983914D01*
X105464372Y-54987641D01*
X105464374Y-54987643D01*
X105578357Y-55101626D01*
X105717106Y-55183681D01*
X105871893Y-55228652D01*
X105871898Y-55228653D01*
X105871902Y-55228654D01*
X105908065Y-55231500D01*
X105950499Y-55231499D01*
X106024997Y-55251460D01*
X106079536Y-55305996D01*
X106099500Y-55380496D01*
X106099500Y-66366282D01*
X106079538Y-66440782D01*
X106025000Y-66495320D01*
X105950500Y-66515282D01*
X105876000Y-66495320D01*
X105845141Y-66471641D01*
X104714038Y-65340538D01*
X104714030Y-65340531D01*
X104660571Y-65304812D01*
X104660565Y-65304808D01*
X104654959Y-65301063D01*
X104566547Y-65241987D01*
X104484606Y-65208046D01*
X104402666Y-65174105D01*
X104402664Y-65174104D01*
X104402663Y-65174104D01*
X104228692Y-65139500D01*
X104228691Y-65139500D01*
X97589718Y-65139500D01*
X97515218Y-65119538D01*
X97484359Y-65095859D01*
X95824036Y-63435536D01*
X95676547Y-63336988D01*
X95512666Y-63269105D01*
X95512664Y-63269104D01*
X95512663Y-63269104D01*
X95338692Y-63234500D01*
X95161308Y-63234500D01*
X94987336Y-63269104D01*
X94823454Y-63336987D01*
X94675965Y-63435535D01*
X94675963Y-63435536D01*
X94550536Y-63560963D01*
X94550535Y-63560965D01*
X94451987Y-63708454D01*
X94384104Y-63872336D01*
X94349500Y-64046307D01*
X94349500Y-64046308D01*
X94349500Y-64223692D01*
X94384105Y-64397666D01*
X94451988Y-64561547D01*
X94550536Y-64709036D01*
X95215536Y-65374036D01*
X96580964Y-66739464D01*
X96654709Y-66788738D01*
X96728453Y-66838013D01*
X96776452Y-66857895D01*
X96892334Y-66905895D01*
X97066308Y-66940500D01*
X97066309Y-66940500D01*
X103705282Y-66940500D01*
X103779782Y-66960462D01*
X103810641Y-66984141D01*
X106300534Y-69474033D01*
X106300536Y-69474036D01*
X108421800Y-71595299D01*
X110498359Y-73671858D01*
X110536923Y-73738653D01*
X110542000Y-73777217D01*
X110542000Y-74812782D01*
X110522038Y-74887282D01*
X110498359Y-74918141D01*
X100900536Y-84515963D01*
X100900531Y-84515969D01*
X100882010Y-84543690D01*
X100882008Y-84543693D01*
X100798698Y-84668373D01*
X100740710Y-84719227D01*
X100665064Y-84734273D01*
X100592029Y-84709480D01*
X100569451Y-84690951D01*
X96999038Y-81120538D01*
X96999030Y-81120531D01*
X96945571Y-81084812D01*
X96945565Y-81084808D01*
X96939959Y-81081063D01*
X96851547Y-81021987D01*
X96769606Y-80988046D01*
X96687666Y-80954105D01*
X96687664Y-80954104D01*
X96687663Y-80954104D01*
X96513692Y-80919500D01*
X96513691Y-80919500D01*
X91726522Y-80919500D01*
X91652022Y-80899538D01*
X91597484Y-80845000D01*
X91577522Y-80770500D01*
X91597484Y-80696000D01*
X91643739Y-80646612D01*
X91717782Y-80597139D01*
X91857139Y-80457782D01*
X91966632Y-80293914D01*
X92042051Y-80111835D01*
X92080500Y-79918541D01*
X92080500Y-79721459D01*
X92042051Y-79528165D01*
X91966632Y-79346086D01*
X91857139Y-79182218D01*
X91717782Y-79042861D01*
X91569660Y-78943889D01*
X91518806Y-78885901D01*
X91503759Y-78810255D01*
X91528551Y-78737220D01*
X91569660Y-78696111D01*
X91582930Y-78687243D01*
X91717782Y-78597139D01*
X91857139Y-78457782D01*
X91966632Y-78293914D01*
X92042051Y-78111835D01*
X92080500Y-77918541D01*
X92080500Y-77721459D01*
X92042051Y-77528165D01*
X91966632Y-77346086D01*
X91857139Y-77182218D01*
X91717782Y-77042861D01*
X91622899Y-76979462D01*
X91553915Y-76933368D01*
X91553912Y-76933367D01*
X91371836Y-76857949D01*
X91371834Y-76857948D01*
X91216989Y-76827147D01*
X91178541Y-76819500D01*
X90431459Y-76819500D01*
X90399389Y-76825878D01*
X90238165Y-76857948D01*
X90238163Y-76857949D01*
X90056087Y-76933367D01*
X90056084Y-76933368D01*
X89892219Y-77042860D01*
X89892214Y-77042864D01*
X89752864Y-77182214D01*
X89752860Y-77182219D01*
X89643368Y-77346084D01*
X89643367Y-77346087D01*
X89567949Y-77528163D01*
X89567948Y-77528165D01*
X89529500Y-77721460D01*
X89529500Y-77918539D01*
X89567948Y-78111834D01*
X89567949Y-78111836D01*
X89643367Y-78293912D01*
X89643368Y-78293915D01*
X89660026Y-78318845D01*
X89752861Y-78457782D01*
X89892218Y-78597139D01*
X90026986Y-78687188D01*
X90040340Y-78696111D01*
X90091193Y-78754100D01*
X90106240Y-78829746D01*
X90081448Y-78902781D01*
X90040339Y-78943889D01*
X89892220Y-79042860D01*
X89892214Y-79042864D01*
X89752864Y-79182214D01*
X89752860Y-79182219D01*
X89643368Y-79346084D01*
X89643367Y-79346087D01*
X89567949Y-79528163D01*
X89567948Y-79528165D01*
X89529500Y-79721460D01*
X89529500Y-79918539D01*
X89567948Y-80111834D01*
X89567949Y-80111836D01*
X89643367Y-80293912D01*
X89643368Y-80293915D01*
X89716197Y-80402911D01*
X89752861Y-80457782D01*
X89892218Y-80597139D01*
X90026986Y-80687188D01*
X90040340Y-80696111D01*
X90091193Y-80754100D01*
X90106240Y-80829746D01*
X90081448Y-80902781D01*
X90040339Y-80943889D01*
X89923459Y-81021987D01*
X89892214Y-81042864D01*
X89752864Y-81182214D01*
X89752860Y-81182219D01*
X89643368Y-81346084D01*
X89643367Y-81346087D01*
X89567949Y-81528163D01*
X89567948Y-81528165D01*
X89529500Y-81721460D01*
X89529500Y-81918539D01*
X89567948Y-82111834D01*
X89567949Y-82111836D01*
X89643367Y-82293912D01*
X89643368Y-82293915D01*
X89716197Y-82402911D01*
X89752861Y-82457782D01*
X89892218Y-82597139D01*
X89994528Y-82665500D01*
X90027474Y-82687514D01*
X90078328Y-82745502D01*
X90093375Y-82821148D01*
X90068583Y-82894183D01*
X90010595Y-82945037D01*
X89999356Y-82950014D01*
X89907907Y-82986076D01*
X89907904Y-82986079D01*
X89787437Y-83077433D01*
X89787433Y-83077437D01*
X89696079Y-83197903D01*
X89640613Y-83338557D01*
X89636838Y-83369999D01*
X89636839Y-83370000D01*
X91973161Y-83370000D01*
X91973161Y-83369999D01*
X91969386Y-83338557D01*
X91913920Y-83197903D01*
X91822566Y-83077437D01*
X91822562Y-83077433D01*
X91704923Y-82988223D01*
X91657623Y-82927301D01*
X91647122Y-82850891D01*
X91676232Y-82779468D01*
X91737154Y-82732168D01*
X91794955Y-82720500D01*
X95990282Y-82720500D01*
X96064782Y-82740462D01*
X96095641Y-82764141D01*
X100900535Y-87569035D01*
X100900536Y-87569036D01*
X107885536Y-94554035D01*
X108010965Y-94679464D01*
X108158453Y-94778013D01*
X108158455Y-94778014D01*
X108158457Y-94778015D01*
X108206451Y-94797895D01*
X108206452Y-94797895D01*
X108322334Y-94845895D01*
X108496308Y-94880500D01*
X112483691Y-94880500D01*
X112657666Y-94845894D01*
X112821547Y-94778013D01*
X112969035Y-94679464D01*
X113094464Y-94554035D01*
X113193013Y-94406547D01*
X113260894Y-94242666D01*
X113295500Y-94068691D01*
X113295500Y-93891309D01*
X113260894Y-93717334D01*
X113193013Y-93553453D01*
X113094464Y-93405965D01*
X112969035Y-93280536D01*
X112969031Y-93280533D01*
X112821548Y-93181987D01*
X112821546Y-93181986D01*
X112657667Y-93114106D01*
X112657663Y-93114105D01*
X112483691Y-93079500D01*
X109019717Y-93079500D01*
X108945217Y-93059538D01*
X108914358Y-93035859D01*
X104638358Y-88759858D01*
X104599794Y-88693063D01*
X104599794Y-88615935D01*
X104638358Y-88549140D01*
X104705153Y-88510576D01*
X104743709Y-88505499D01*
X105366934Y-88505499D01*
X105403098Y-88502654D01*
X105557894Y-88457681D01*
X105696643Y-88375626D01*
X105810626Y-88261643D01*
X105892681Y-88122894D01*
X105937654Y-87968098D01*
X105940500Y-87931935D01*
X105940499Y-87794373D01*
X105960461Y-87719875D01*
X105984136Y-87689019D01*
X107129114Y-86544043D01*
X107159816Y-86498092D01*
X107159819Y-86498088D01*
X107205773Y-86429314D01*
X107205778Y-86429304D01*
X107232206Y-86365500D01*
X107258580Y-86301828D01*
X107273196Y-86228347D01*
X107307309Y-86159174D01*
X107330390Y-86140030D01*
X107329457Y-86138827D01*
X107336858Y-86133084D01*
X107336865Y-86133081D01*
X107453081Y-86016865D01*
X107534888Y-85878535D01*
X107589994Y-85824572D01*
X107664699Y-85805391D01*
X107738986Y-85826132D01*
X107787027Y-85871602D01*
X107800008Y-85891030D01*
X107807861Y-85902782D01*
X107947218Y-86042139D01*
X108056215Y-86114968D01*
X108111084Y-86151631D01*
X108111085Y-86151631D01*
X108111086Y-86151632D01*
X108293165Y-86227051D01*
X108486459Y-86265500D01*
X108486460Y-86265500D01*
X108683540Y-86265500D01*
X108683541Y-86265500D01*
X108876835Y-86227051D01*
X109058914Y-86151632D01*
X109222782Y-86042139D01*
X109230780Y-86034141D01*
X109297575Y-85995577D01*
X109336139Y-85990500D01*
X111907199Y-85990500D01*
X111981699Y-86010462D01*
X112035450Y-86063654D01*
X112066915Y-86116860D01*
X112066918Y-86116863D01*
X112066919Y-86116865D01*
X112183135Y-86233081D01*
X112324602Y-86316744D01*
X112482428Y-86362597D01*
X112482427Y-86362597D01*
X112482431Y-86362598D01*
X112519306Y-86365500D01*
X112519313Y-86365500D01*
X113350687Y-86365500D01*
X113350694Y-86365500D01*
X113387569Y-86362598D01*
X113545398Y-86316744D01*
X113686865Y-86233081D01*
X113803081Y-86116865D01*
X113886744Y-85975398D01*
X113910740Y-85892803D01*
X113950692Y-85826834D01*
X114018280Y-85789677D01*
X114095391Y-85791292D01*
X114161364Y-85831246D01*
X114177710Y-85851595D01*
X114235921Y-85938713D01*
X114235927Y-85938720D01*
X114361282Y-86064075D01*
X114361284Y-86064076D01*
X114485000Y-86146739D01*
X115385000Y-86146739D01*
X115508715Y-86064076D01*
X115508717Y-86064075D01*
X115634072Y-85938720D01*
X115634076Y-85938715D01*
X115732569Y-85791312D01*
X115800414Y-85627517D01*
X115817823Y-85540000D01*
X115385000Y-85540000D01*
X115385000Y-86146739D01*
X114485000Y-86146739D01*
X114485000Y-85037339D01*
X114535000Y-85037339D01*
X114535000Y-85142661D01*
X114562259Y-85244394D01*
X114614920Y-85335606D01*
X114689394Y-85410080D01*
X114780606Y-85462741D01*
X114882339Y-85490000D01*
X114987661Y-85490000D01*
X115089394Y-85462741D01*
X115180606Y-85410080D01*
X115255080Y-85335606D01*
X115307741Y-85244394D01*
X115335000Y-85142661D01*
X115335000Y-85037339D01*
X115307741Y-84935606D01*
X115255080Y-84844394D01*
X115180606Y-84769920D01*
X115089394Y-84717259D01*
X114987661Y-84690000D01*
X114882339Y-84690000D01*
X114780606Y-84717259D01*
X114689394Y-84769920D01*
X114614920Y-84844394D01*
X114562259Y-84935606D01*
X114535000Y-85037339D01*
X114485000Y-85037339D01*
X114485000Y-84033259D01*
X114361284Y-84115923D01*
X114361279Y-84115927D01*
X114235924Y-84241282D01*
X114177710Y-84328405D01*
X114119721Y-84379258D01*
X114044075Y-84394304D01*
X113971040Y-84369511D01*
X113920187Y-84311522D01*
X113910741Y-84287200D01*
X113886744Y-84204602D01*
X113879729Y-84192741D01*
X113848559Y-84140035D01*
X113803081Y-84063135D01*
X113686865Y-83946919D01*
X113616131Y-83905087D01*
X113545400Y-83863257D01*
X113545399Y-83863256D01*
X113545398Y-83863256D01*
X113479279Y-83844046D01*
X113387571Y-83817402D01*
X113387572Y-83817402D01*
X113376506Y-83816531D01*
X113350694Y-83814500D01*
X112519306Y-83814500D01*
X112494722Y-83816434D01*
X112482428Y-83817402D01*
X112324599Y-83863257D01*
X112183136Y-83946918D01*
X112183133Y-83946920D01*
X112066920Y-84063133D01*
X112066915Y-84063139D01*
X112035450Y-84116346D01*
X111980344Y-84170310D01*
X111907199Y-84189500D01*
X109516805Y-84189500D01*
X109442305Y-84169538D01*
X109392916Y-84123280D01*
X109388000Y-84115923D01*
X109362139Y-84077218D01*
X109222782Y-83937861D01*
X109137624Y-83880960D01*
X109058915Y-83828368D01*
X109058912Y-83828367D01*
X108876836Y-83752949D01*
X108876834Y-83752948D01*
X108698130Y-83717402D01*
X108683541Y-83714500D01*
X108486459Y-83714500D01*
X108471870Y-83717402D01*
X108293165Y-83752948D01*
X108293163Y-83752949D01*
X108111087Y-83828367D01*
X108111084Y-83828368D01*
X107947219Y-83937860D01*
X107947214Y-83937864D01*
X107807864Y-84077214D01*
X107807856Y-84077224D01*
X107787026Y-84108398D01*
X107729038Y-84159251D01*
X107653391Y-84174297D01*
X107580357Y-84149503D01*
X107534888Y-84101463D01*
X107470475Y-83992547D01*
X107453081Y-83963135D01*
X107336865Y-83846919D01*
X107195398Y-83763256D01*
X107129279Y-83744046D01*
X107037571Y-83717402D01*
X107037572Y-83717402D01*
X107026506Y-83716531D01*
X107000694Y-83714500D01*
X106169306Y-83714500D01*
X106144722Y-83716434D01*
X106132428Y-83717402D01*
X105974599Y-83763257D01*
X105833136Y-83846918D01*
X105833133Y-83846920D01*
X105716920Y-83963133D01*
X105716918Y-83963136D01*
X105633257Y-84104599D01*
X105587402Y-84262428D01*
X105587402Y-84262431D01*
X105584500Y-84299306D01*
X105584500Y-85680694D01*
X105586757Y-85709374D01*
X105587402Y-85717571D01*
X105633257Y-85875401D01*
X105642500Y-85891030D01*
X105663240Y-85965317D01*
X105644058Y-86040022D01*
X105619607Y-86072234D01*
X104980982Y-86710859D01*
X104914187Y-86749423D01*
X104875624Y-86754500D01*
X104738078Y-86754500D01*
X104738059Y-86754501D01*
X104701906Y-86757345D01*
X104701902Y-86757346D01*
X104547110Y-86802318D01*
X104547103Y-86802320D01*
X104408358Y-86884373D01*
X104408355Y-86884375D01*
X104294375Y-86998355D01*
X104294373Y-86998358D01*
X104268251Y-87042529D01*
X104213145Y-87096493D01*
X104138440Y-87115674D01*
X104064153Y-87094933D01*
X104011749Y-87042529D01*
X104009785Y-87039209D01*
X103985626Y-86998357D01*
X103871643Y-86884374D01*
X103732896Y-86802320D01*
X103732893Y-86802318D01*
X103578106Y-86757347D01*
X103578101Y-86757346D01*
X103568235Y-86756569D01*
X103541935Y-86754500D01*
X103541927Y-86754500D01*
X102913077Y-86754500D01*
X102913059Y-86754501D01*
X102876906Y-86757345D01*
X102876899Y-86757346D01*
X102774731Y-86787029D01*
X102773119Y-86787062D01*
X102771725Y-86787868D01*
X102734671Y-86787868D01*
X102697620Y-86788644D01*
X102696208Y-86787868D01*
X102694597Y-86787868D01*
X102662505Y-86769339D01*
X102630032Y-86751487D01*
X102627802Y-86749303D01*
X102589358Y-86710859D01*
X102544140Y-86665640D01*
X102505577Y-86598845D01*
X102500500Y-86560282D01*
X102500500Y-85524717D01*
X102520462Y-85450217D01*
X102544137Y-85419362D01*
X112141964Y-75821536D01*
X112181436Y-75762459D01*
X112240513Y-75674047D01*
X112240514Y-75674042D01*
X112243800Y-75669126D01*
X112301789Y-75618272D01*
X112377435Y-75603225D01*
X112450469Y-75628017D01*
X112473048Y-75646547D01*
X113680536Y-76854035D01*
X113805965Y-76979464D01*
X113805968Y-76979466D01*
X113953451Y-77078012D01*
X113953453Y-77078013D01*
X114117334Y-77145894D01*
X114291308Y-77180500D01*
X114291309Y-77180500D01*
X117285013Y-77180500D01*
X117359513Y-77200462D01*
X117414051Y-77255000D01*
X117434013Y-77329500D01*
X117414051Y-77404000D01*
X117390372Y-77434859D01*
X117364375Y-77460855D01*
X117364373Y-77460858D01*
X117282318Y-77599606D01*
X117237347Y-77754393D01*
X117237346Y-77754398D01*
X117236311Y-77767552D01*
X117234500Y-77790565D01*
X117234500Y-77790566D01*
X117234500Y-77790572D01*
X117234500Y-78419422D01*
X117234501Y-78419440D01*
X117237346Y-78455604D01*
X117237545Y-78456693D01*
X117237534Y-78457999D01*
X117237943Y-78463190D01*
X117237493Y-78463225D01*
X117237105Y-78512519D01*
X117209500Y-78651307D01*
X117209500Y-78828692D01*
X117232413Y-78943889D01*
X117244105Y-79002666D01*
X117311988Y-79166547D01*
X117322457Y-79182214D01*
X117410535Y-79314034D01*
X117410536Y-79314036D01*
X121725491Y-83628991D01*
X121764055Y-83695786D01*
X121764055Y-83772914D01*
X121725491Y-83839709D01*
X121677152Y-83872008D01*
X121541083Y-83928368D01*
X121377219Y-84037860D01*
X121377214Y-84037864D01*
X121237864Y-84177214D01*
X121237856Y-84177224D01*
X121217026Y-84208398D01*
X121159038Y-84259251D01*
X121083391Y-84274297D01*
X121010357Y-84249503D01*
X120964888Y-84201463D01*
X120918753Y-84123453D01*
X120883081Y-84063135D01*
X120766865Y-83946919D01*
X120696131Y-83905087D01*
X120625400Y-83863257D01*
X120625399Y-83863256D01*
X120625398Y-83863256D01*
X120559279Y-83844046D01*
X120467571Y-83817402D01*
X120467572Y-83817402D01*
X120456506Y-83816531D01*
X120430694Y-83814500D01*
X119599306Y-83814500D01*
X119574722Y-83816434D01*
X119562428Y-83817402D01*
X119404599Y-83863257D01*
X119263136Y-83946918D01*
X119263133Y-83946920D01*
X119146920Y-84063133D01*
X119146918Y-84063136D01*
X119063257Y-84204599D01*
X119017402Y-84362428D01*
X119017402Y-84362431D01*
X119014500Y-84399306D01*
X119014500Y-85780694D01*
X119015207Y-85789677D01*
X119017402Y-85817571D01*
X119039261Y-85892807D01*
X119062153Y-85971602D01*
X119063257Y-85975400D01*
X119083993Y-86010462D01*
X119146919Y-86116865D01*
X119263135Y-86233081D01*
X119404602Y-86316744D01*
X119562428Y-86362597D01*
X119562427Y-86362597D01*
X119562431Y-86362598D01*
X119599306Y-86365500D01*
X119599313Y-86365500D01*
X120430687Y-86365500D01*
X120430694Y-86365500D01*
X120467569Y-86362598D01*
X120625398Y-86316744D01*
X120766865Y-86233081D01*
X120883081Y-86116865D01*
X120964888Y-85978535D01*
X121019994Y-85924572D01*
X121094699Y-85905391D01*
X121168986Y-85926132D01*
X121217027Y-85971602D01*
X121233046Y-85995577D01*
X121237861Y-86002782D01*
X121377218Y-86142139D01*
X121486215Y-86214968D01*
X121541084Y-86251631D01*
X121541085Y-86251631D01*
X121541086Y-86251632D01*
X121723165Y-86327051D01*
X121916459Y-86365500D01*
X121916460Y-86365500D01*
X122113540Y-86365500D01*
X122113541Y-86365500D01*
X122306835Y-86327051D01*
X122488914Y-86251632D01*
X122652782Y-86142139D01*
X122765141Y-86029780D01*
X122831936Y-85991216D01*
X122909064Y-85991216D01*
X122975859Y-86029780D01*
X123014423Y-86096575D01*
X123019500Y-86135139D01*
X123019500Y-90271282D01*
X122999538Y-90345782D01*
X122945000Y-90400320D01*
X122870500Y-90420282D01*
X122796000Y-90400320D01*
X122765141Y-90376641D01*
X118419141Y-86030641D01*
X118380577Y-85963846D01*
X118375500Y-85925282D01*
X118375500Y-84366307D01*
X118343335Y-84204602D01*
X118340895Y-84192334D01*
X118288402Y-84065606D01*
X118273015Y-84028457D01*
X118273010Y-84028448D01*
X118236892Y-83974394D01*
X118174464Y-83880964D01*
X117160036Y-82866536D01*
X117091138Y-82820500D01*
X117012547Y-82767987D01*
X116930606Y-82734046D01*
X116848666Y-82700105D01*
X116848664Y-82700104D01*
X116848663Y-82700104D01*
X116674692Y-82665500D01*
X116674691Y-82665500D01*
X115862309Y-82665500D01*
X115688336Y-82700105D01*
X115688332Y-82700106D01*
X115524453Y-82767986D01*
X115524451Y-82767987D01*
X115376968Y-82866533D01*
X115376963Y-82866537D01*
X115251537Y-82991963D01*
X115251533Y-82991968D01*
X115152987Y-83139451D01*
X115152986Y-83139453D01*
X115085106Y-83303332D01*
X115085105Y-83303336D01*
X115050500Y-83477308D01*
X115050500Y-83654691D01*
X115085105Y-83828663D01*
X115085106Y-83828667D01*
X115152986Y-83992546D01*
X115251530Y-84140027D01*
X115251536Y-84140035D01*
X115341359Y-84229858D01*
X115379923Y-84296653D01*
X115385000Y-84335217D01*
X115385000Y-84640000D01*
X115817823Y-84640000D01*
X115819135Y-84638400D01*
X115819699Y-84629797D01*
X115815868Y-84615500D01*
X115822179Y-84591943D01*
X115823775Y-84567606D01*
X115831998Y-84555297D01*
X115835830Y-84541000D01*
X115853075Y-84523754D01*
X115866625Y-84503476D01*
X115879901Y-84496928D01*
X115890368Y-84486462D01*
X115913925Y-84480149D01*
X115935799Y-84469363D01*
X115964868Y-84466500D01*
X116151282Y-84466500D01*
X116225782Y-84486462D01*
X116256641Y-84510141D01*
X116530859Y-84784359D01*
X116569423Y-84851154D01*
X116574500Y-84889718D01*
X116574500Y-86448692D01*
X116608972Y-86622000D01*
X116609105Y-86622666D01*
X116616954Y-86641614D01*
X116676987Y-86786547D01*
X116687526Y-86802319D01*
X116775536Y-86934036D01*
X116775539Y-86934039D01*
X121610859Y-91769359D01*
X121649423Y-91836154D01*
X121654500Y-91874718D01*
X121654500Y-101482782D01*
X121634538Y-101557282D01*
X121610859Y-101588141D01*
X119315536Y-103883463D01*
X119315535Y-103883465D01*
X119276064Y-103942539D01*
X119276063Y-103942540D01*
X119216985Y-104030956D01*
X119183046Y-104112893D01*
X119149106Y-104194830D01*
X119149104Y-104194836D01*
X119114500Y-104368807D01*
X119114500Y-109943692D01*
X119149104Y-110117663D01*
X119149105Y-110117665D01*
X119216986Y-110281546D01*
X119216987Y-110281547D01*
X119263060Y-110350500D01*
X119315536Y-110429036D01*
X119315538Y-110429038D01*
X119315539Y-110429039D01*
X122255859Y-113369358D01*
X122294423Y-113436153D01*
X122299500Y-113474717D01*
X122299500Y-114544481D01*
X122329060Y-114731118D01*
X122387453Y-114910832D01*
X122387457Y-114910841D01*
X122387458Y-114910842D01*
X122475898Y-115084416D01*
X122474504Y-115085125D01*
X122494195Y-115151601D01*
X122476189Y-115226598D01*
X122423097Y-115282544D01*
X122349145Y-115304449D01*
X122345246Y-115304500D01*
X119582843Y-115304500D01*
X119508343Y-115284538D01*
X119453805Y-115230000D01*
X119433843Y-115155500D01*
X119453805Y-115081000D01*
X119462300Y-115067920D01*
X119466425Y-115062242D01*
X119526760Y-114979199D01*
X119612547Y-114810832D01*
X119670940Y-114631118D01*
X119700500Y-114444481D01*
X119700500Y-113916232D01*
X120149500Y-113916232D01*
X120149500Y-114083767D01*
X120182183Y-114248079D01*
X120246294Y-114402858D01*
X120246301Y-114402870D01*
X120338066Y-114540205D01*
X120339374Y-114542162D01*
X120457838Y-114660626D01*
X120457841Y-114660628D01*
X120597129Y-114753698D01*
X120597133Y-114753700D01*
X120597137Y-114753703D01*
X120597138Y-114753703D01*
X120597141Y-114753705D01*
X120642472Y-114772481D01*
X120751918Y-114817816D01*
X120916233Y-114850500D01*
X121083767Y-114850500D01*
X121248082Y-114817816D01*
X121402863Y-114753703D01*
X121542162Y-114660626D01*
X121660626Y-114542162D01*
X121753703Y-114402863D01*
X121817816Y-114248082D01*
X121850500Y-114083767D01*
X121850500Y-113916233D01*
X121841170Y-113869330D01*
X121817816Y-113751920D01*
X121817816Y-113751918D01*
X121768855Y-113633717D01*
X121753705Y-113597141D01*
X121753698Y-113597129D01*
X121660628Y-113457841D01*
X121660626Y-113457838D01*
X121542162Y-113339374D01*
X121532906Y-113333189D01*
X121402870Y-113246301D01*
X121402858Y-113246294D01*
X121264957Y-113189174D01*
X121248082Y-113182184D01*
X121248080Y-113182183D01*
X121248079Y-113182183D01*
X121083767Y-113149500D01*
X120916233Y-113149500D01*
X120751920Y-113182183D01*
X120597141Y-113246294D01*
X120597129Y-113246301D01*
X120457841Y-113339371D01*
X120457834Y-113339377D01*
X120339377Y-113457834D01*
X120339371Y-113457841D01*
X120246301Y-113597129D01*
X120246294Y-113597141D01*
X120182183Y-113751920D01*
X120149500Y-113916232D01*
X119700500Y-113916232D01*
X119700500Y-113555519D01*
X119670940Y-113368882D01*
X119612547Y-113189168D01*
X119526760Y-113020801D01*
X119415690Y-112867927D01*
X119282073Y-112734310D01*
X119129199Y-112623240D01*
X119081094Y-112598729D01*
X118960842Y-112537458D01*
X118960841Y-112537457D01*
X118960832Y-112537453D01*
X118781118Y-112479060D01*
X118594481Y-112449500D01*
X118405519Y-112449500D01*
X118218882Y-112479060D01*
X118039168Y-112537453D01*
X118039163Y-112537455D01*
X118039157Y-112537458D01*
X117870804Y-112623238D01*
X117870799Y-112623241D01*
X117717936Y-112734303D01*
X117717925Y-112734312D01*
X117584312Y-112867925D01*
X117584303Y-112867936D01*
X117473241Y-113020799D01*
X117473238Y-113020804D01*
X117387458Y-113189157D01*
X117387451Y-113189174D01*
X117368891Y-113246297D01*
X117329060Y-113368882D01*
X117299500Y-113555519D01*
X117299500Y-113555523D01*
X117299500Y-114396282D01*
X117294423Y-114415229D01*
X117294423Y-114434846D01*
X117284615Y-114451833D01*
X117279538Y-114470782D01*
X117265666Y-114484653D01*
X117255859Y-114501641D01*
X117238871Y-114511448D01*
X117225000Y-114525320D01*
X117206051Y-114530397D01*
X117189064Y-114540205D01*
X117169448Y-114540205D01*
X117150500Y-114545282D01*
X117131552Y-114540205D01*
X117111936Y-114540205D01*
X117094948Y-114530397D01*
X117076000Y-114525320D01*
X117045141Y-114501641D01*
X117044141Y-114500641D01*
X117005577Y-114433846D01*
X117000500Y-114395282D01*
X117000500Y-113401460D01*
X116994114Y-113369358D01*
X116962051Y-113208165D01*
X116886632Y-113026086D01*
X116883099Y-113020799D01*
X116849968Y-112971215D01*
X116777139Y-112862218D01*
X116637782Y-112722861D01*
X116582911Y-112686197D01*
X116473915Y-112613368D01*
X116473912Y-112613367D01*
X116291836Y-112537949D01*
X116291834Y-112537948D01*
X116136989Y-112507147D01*
X116098541Y-112499500D01*
X115901459Y-112499500D01*
X115869389Y-112505878D01*
X115708165Y-112537948D01*
X115708163Y-112537949D01*
X115526087Y-112613367D01*
X115526084Y-112613368D01*
X115362219Y-112722860D01*
X115362214Y-112722864D01*
X115222864Y-112862214D01*
X115222860Y-112862219D01*
X115113368Y-113026084D01*
X115113367Y-113026087D01*
X115037949Y-113208163D01*
X115037948Y-113208165D01*
X114999500Y-113401460D01*
X114999500Y-114598539D01*
X115037948Y-114791834D01*
X115037949Y-114791836D01*
X115113364Y-114973905D01*
X115113368Y-114973914D01*
X115113369Y-114973916D01*
X115113373Y-114973923D01*
X115139338Y-115012782D01*
X115153105Y-115038536D01*
X115153105Y-115038537D01*
X115153106Y-115038538D01*
X115162924Y-115062239D01*
X115162925Y-115062242D01*
X115201985Y-115156544D01*
X115201986Y-115156546D01*
X115201987Y-115156547D01*
X115252452Y-115232073D01*
X115300536Y-115304036D01*
X116900964Y-116904464D01*
X116960040Y-116943936D01*
X117048453Y-117003013D01*
X117130393Y-117036953D01*
X117137696Y-117039978D01*
X117142514Y-117041974D01*
X117203706Y-117088924D01*
X117233224Y-117160180D01*
X117234500Y-117179633D01*
X117234500Y-117314421D01*
X117234501Y-117314440D01*
X117237345Y-117350593D01*
X117237345Y-117350596D01*
X117237346Y-117350598D01*
X117271059Y-117466638D01*
X117282320Y-117505396D01*
X117364373Y-117644141D01*
X117364375Y-117644144D01*
X117478355Y-117758124D01*
X117478361Y-117758129D01*
X117616620Y-117839894D01*
X117670584Y-117895000D01*
X117689766Y-117969704D01*
X117669025Y-118043991D01*
X117613919Y-118097955D01*
X117613808Y-118098018D01*
X117606592Y-118102075D01*
X117488858Y-118191355D01*
X117488855Y-118191358D01*
X117399578Y-118309089D01*
X117399577Y-118309089D01*
X117345373Y-118446542D01*
X117345372Y-118446543D01*
X117335000Y-118532918D01*
X117335000Y-118606667D01*
X117315038Y-118681167D01*
X117260500Y-118735705D01*
X117186000Y-118755667D01*
X117111500Y-118735705D01*
X117056962Y-118681167D01*
X117044293Y-118652711D01*
X117029086Y-118605911D01*
X117019873Y-118577555D01*
X116941232Y-118423212D01*
X116930731Y-118408759D01*
X116858317Y-118309090D01*
X116839414Y-118283072D01*
X116716928Y-118160586D01*
X116716924Y-118160583D01*
X116576793Y-118058771D01*
X116576790Y-118058769D01*
X116576788Y-118058768D01*
X116422445Y-117980127D01*
X116374821Y-117964653D01*
X116257700Y-117926597D01*
X116160086Y-117911137D01*
X116086611Y-117899500D01*
X115913389Y-117899500D01*
X115847037Y-117910009D01*
X115742299Y-117926597D01*
X115577561Y-117980125D01*
X115577555Y-117980127D01*
X115577549Y-117980129D01*
X115577549Y-117980130D01*
X115423206Y-118058771D01*
X115283075Y-118160583D01*
X115160583Y-118283075D01*
X115058771Y-118423206D01*
X114980130Y-118577549D01*
X114980125Y-118577561D01*
X114926597Y-118742299D01*
X114910422Y-118844428D01*
X114899500Y-118913389D01*
X114899500Y-119086611D01*
X114910236Y-119154394D01*
X114926597Y-119257700D01*
X114946866Y-119320080D01*
X114980127Y-119422445D01*
X115057203Y-119573715D01*
X115058771Y-119576793D01*
X115147613Y-119699072D01*
X115160586Y-119716928D01*
X115283072Y-119839414D01*
X115423212Y-119941232D01*
X115577555Y-120019873D01*
X115742299Y-120073402D01*
X115913389Y-120100500D01*
X115913393Y-120100500D01*
X116086607Y-120100500D01*
X116086611Y-120100500D01*
X116257701Y-120073402D01*
X116422445Y-120019873D01*
X116576788Y-119941232D01*
X116716928Y-119839414D01*
X116839414Y-119716928D01*
X116941232Y-119576788D01*
X117019873Y-119422445D01*
X117073402Y-119257701D01*
X117073405Y-119257679D01*
X117074167Y-119254511D01*
X117074842Y-119253266D01*
X117075211Y-119252133D01*
X117075420Y-119252201D01*
X117110965Y-119186727D01*
X117176726Y-119146424D01*
X117253827Y-119144401D01*
X117321611Y-119181199D01*
X117357663Y-119234624D01*
X117399577Y-119340909D01*
X117399578Y-119340910D01*
X117488855Y-119458641D01*
X117488858Y-119458644D01*
X117606590Y-119547922D01*
X117660000Y-119568984D01*
X117660000Y-119568983D01*
X118560000Y-119568983D01*
X118613409Y-119547922D01*
X118613410Y-119547922D01*
X118731141Y-119458644D01*
X118731144Y-119458641D01*
X118737697Y-119450000D01*
X119718259Y-119450000D01*
X119800923Y-119573715D01*
X119800927Y-119573720D01*
X119926279Y-119699072D01*
X119926284Y-119699076D01*
X120073687Y-119797569D01*
X120237480Y-119865413D01*
X120237482Y-119865414D01*
X120411358Y-119900000D01*
X120550000Y-119900000D01*
X121450000Y-119900000D01*
X121588642Y-119900000D01*
X121762517Y-119865414D01*
X121762519Y-119865413D01*
X121926312Y-119797569D01*
X122073715Y-119699076D01*
X122073720Y-119699072D01*
X122199072Y-119573720D01*
X122199076Y-119573715D01*
X122281741Y-119450000D01*
X121450000Y-119450000D01*
X121450000Y-119900000D01*
X120550000Y-119900000D01*
X120550000Y-119450000D01*
X119718259Y-119450000D01*
X118737697Y-119450000D01*
X118799506Y-119368493D01*
X118820422Y-119340909D01*
X118846413Y-119275000D01*
X118560000Y-119275000D01*
X118560000Y-119568983D01*
X117660000Y-119568983D01*
X117660000Y-118974000D01*
X117667144Y-118947339D01*
X120600000Y-118947339D01*
X120600000Y-119052661D01*
X120627259Y-119154394D01*
X120679920Y-119245606D01*
X120754394Y-119320080D01*
X120845606Y-119372741D01*
X120947339Y-119400000D01*
X121052661Y-119400000D01*
X121154394Y-119372741D01*
X121245606Y-119320080D01*
X121320080Y-119245606D01*
X121372741Y-119154394D01*
X121400000Y-119052661D01*
X121400000Y-118947339D01*
X121372741Y-118845606D01*
X121320080Y-118754394D01*
X121245606Y-118679920D01*
X121154394Y-118627259D01*
X121052661Y-118600000D01*
X120947339Y-118600000D01*
X120845606Y-118627259D01*
X120754394Y-118679920D01*
X120679920Y-118754394D01*
X120627259Y-118845606D01*
X120600000Y-118947339D01*
X117667144Y-118947339D01*
X117679962Y-118899500D01*
X117734500Y-118844962D01*
X117809000Y-118825000D01*
X118110000Y-118825000D01*
X118110000Y-118550000D01*
X119718259Y-118550000D01*
X120550000Y-118550000D01*
X121450000Y-118550000D01*
X122281740Y-118550000D01*
X122199076Y-118426284D01*
X122199072Y-118426279D01*
X122073720Y-118300927D01*
X122073715Y-118300923D01*
X121926312Y-118202430D01*
X121762519Y-118134586D01*
X121762517Y-118134585D01*
X121588642Y-118100000D01*
X121450000Y-118100000D01*
X121450000Y-118550000D01*
X120550000Y-118550000D01*
X120550000Y-118100000D01*
X120411358Y-118100000D01*
X120237482Y-118134585D01*
X120237480Y-118134586D01*
X120073687Y-118202430D01*
X119926284Y-118300923D01*
X119926279Y-118300927D01*
X119800927Y-118426279D01*
X119800923Y-118426284D01*
X119718259Y-118550000D01*
X118110000Y-118550000D01*
X118110000Y-118524000D01*
X118129962Y-118449500D01*
X118184500Y-118394962D01*
X118259000Y-118375000D01*
X118846413Y-118375000D01*
X118846413Y-118374999D01*
X118820422Y-118309090D01*
X118820422Y-118309089D01*
X118731144Y-118191358D01*
X118731141Y-118191355D01*
X118613410Y-118102077D01*
X118606194Y-118098020D01*
X118551041Y-118044105D01*
X118530235Y-117969836D01*
X118549350Y-117895114D01*
X118603263Y-117839962D01*
X118741643Y-117758126D01*
X118855626Y-117644143D01*
X118937681Y-117505394D01*
X118982654Y-117350598D01*
X118985500Y-117314435D01*
X118985500Y-117254500D01*
X119005462Y-117180000D01*
X119060000Y-117125462D01*
X119134500Y-117105500D01*
X125183692Y-117105500D01*
X125357666Y-117070895D01*
X125439606Y-117036953D01*
X125521547Y-117003013D01*
X125609959Y-116943936D01*
X125669036Y-116904464D01*
X126245141Y-116328357D01*
X126311936Y-116289794D01*
X126389064Y-116289794D01*
X126455859Y-116328358D01*
X126494423Y-116395153D01*
X126499500Y-116433717D01*
X126499500Y-117800082D01*
X126479538Y-117874582D01*
X126425000Y-117929120D01*
X126350500Y-117949082D01*
X126304458Y-117941790D01*
X126257698Y-117926597D01*
X126180179Y-117914319D01*
X126086611Y-117899500D01*
X125913389Y-117899500D01*
X125847037Y-117910009D01*
X125742299Y-117926597D01*
X125577561Y-117980125D01*
X125577555Y-117980127D01*
X125577549Y-117980129D01*
X125577549Y-117980130D01*
X125423206Y-118058771D01*
X125283075Y-118160583D01*
X125160583Y-118283075D01*
X125058771Y-118423206D01*
X124980130Y-118577549D01*
X124980125Y-118577561D01*
X124926597Y-118742299D01*
X124910422Y-118844428D01*
X124899500Y-118913389D01*
X124899500Y-119086611D01*
X124910236Y-119154394D01*
X124926597Y-119257700D01*
X124946866Y-119320080D01*
X124980127Y-119422445D01*
X125057203Y-119573715D01*
X125058771Y-119576793D01*
X125147613Y-119699072D01*
X125160586Y-119716928D01*
X125283072Y-119839414D01*
X125423212Y-119941232D01*
X125577555Y-120019873D01*
X125742299Y-120073402D01*
X125913389Y-120100500D01*
X125913393Y-120100500D01*
X126086607Y-120100500D01*
X126086611Y-120100500D01*
X126257701Y-120073402D01*
X126304456Y-120058209D01*
X126381478Y-120054173D01*
X126450200Y-120089188D01*
X126492207Y-120153873D01*
X126499500Y-120199917D01*
X126499500Y-120994683D01*
X126499120Y-121005313D01*
X126484997Y-121202769D01*
X126481972Y-121223811D01*
X126441024Y-121412048D01*
X126435034Y-121432447D01*
X126367717Y-121612929D01*
X126358886Y-121632266D01*
X126266567Y-121801337D01*
X126255073Y-121819222D01*
X126139633Y-121973431D01*
X126125712Y-121989497D01*
X125989497Y-122125712D01*
X125973431Y-122139633D01*
X125819222Y-122255073D01*
X125801337Y-122266567D01*
X125632266Y-122358886D01*
X125612929Y-122367717D01*
X125432447Y-122435034D01*
X125412048Y-122441024D01*
X125223811Y-122481972D01*
X125202769Y-122484997D01*
X125005313Y-122499120D01*
X124994683Y-122499500D01*
X112589367Y-122499500D01*
X112514867Y-122479538D01*
X112460329Y-122425000D01*
X112440367Y-122350500D01*
X112451708Y-122293483D01*
X112505894Y-122162666D01*
X112540500Y-121988691D01*
X112540500Y-121011309D01*
X112538250Y-121000000D01*
X112505894Y-120837336D01*
X112505893Y-120837332D01*
X112438013Y-120673453D01*
X112438012Y-120673451D01*
X112339466Y-120525968D01*
X112339462Y-120525963D01*
X112214036Y-120400537D01*
X112214031Y-120400533D01*
X112066548Y-120301987D01*
X112066546Y-120301986D01*
X111902667Y-120234106D01*
X111902663Y-120234105D01*
X111728691Y-120199500D01*
X111551309Y-120199500D01*
X111377336Y-120234105D01*
X111377332Y-120234106D01*
X111213453Y-120301986D01*
X111213451Y-120301987D01*
X111065968Y-120400533D01*
X111065963Y-120400537D01*
X110940537Y-120525963D01*
X110940533Y-120525968D01*
X110841987Y-120673451D01*
X110841986Y-120673453D01*
X110774106Y-120837332D01*
X110774105Y-120837336D01*
X110739500Y-121011308D01*
X110739500Y-121988691D01*
X110747341Y-122028113D01*
X110774106Y-122162666D01*
X110828291Y-122293482D01*
X110838358Y-122369949D01*
X110808843Y-122441206D01*
X110747653Y-122488158D01*
X110690633Y-122499500D01*
X103949367Y-122499500D01*
X103874867Y-122479538D01*
X103820329Y-122425000D01*
X103800367Y-122350500D01*
X103811708Y-122293483D01*
X103865894Y-122162666D01*
X103900500Y-121988691D01*
X103900500Y-121011309D01*
X103898250Y-121000000D01*
X103865894Y-120837336D01*
X103865893Y-120837332D01*
X103798013Y-120673453D01*
X103798012Y-120673451D01*
X103699466Y-120525968D01*
X103699462Y-120525963D01*
X103574036Y-120400537D01*
X103574031Y-120400533D01*
X103426548Y-120301987D01*
X103426546Y-120301986D01*
X103262667Y-120234106D01*
X103262663Y-120234105D01*
X103088691Y-120199500D01*
X102911309Y-120199500D01*
X102737336Y-120234105D01*
X102737332Y-120234106D01*
X102573453Y-120301986D01*
X102573451Y-120301987D01*
X102425968Y-120400533D01*
X102425963Y-120400537D01*
X102300537Y-120525963D01*
X102300533Y-120525968D01*
X102201987Y-120673451D01*
X102201986Y-120673453D01*
X102134106Y-120837332D01*
X102134105Y-120837336D01*
X102099500Y-121011308D01*
X102099500Y-121988691D01*
X102107341Y-122028113D01*
X102134106Y-122162666D01*
X102188291Y-122293482D01*
X102198358Y-122369949D01*
X102168843Y-122441206D01*
X102107653Y-122488158D01*
X102050633Y-122499500D01*
X97954526Y-122499500D01*
X97880026Y-122479538D01*
X97825488Y-122425000D01*
X97805526Y-122350500D01*
X97825488Y-122276000D01*
X97830636Y-122267721D01*
X97834819Y-122261460D01*
X97842322Y-122250231D01*
X97913973Y-122077251D01*
X97950500Y-121893616D01*
X97950500Y-121106384D01*
X97913973Y-120922749D01*
X97842322Y-120749769D01*
X97738302Y-120594092D01*
X97605908Y-120461698D01*
X97514368Y-120400533D01*
X97450235Y-120357680D01*
X97450226Y-120357675D01*
X97313073Y-120300865D01*
X97277251Y-120286027D01*
X97277249Y-120286026D01*
X97277248Y-120286026D01*
X97093616Y-120249500D01*
X96906384Y-120249500D01*
X96722751Y-120286026D01*
X96549773Y-120357675D01*
X96549764Y-120357680D01*
X96394093Y-120461697D01*
X96394088Y-120461701D01*
X96261701Y-120594088D01*
X96261697Y-120594093D01*
X96157680Y-120749764D01*
X96157675Y-120749773D01*
X96086026Y-120922751D01*
X96049500Y-121106383D01*
X96049500Y-121893616D01*
X96086026Y-122077248D01*
X96157675Y-122250226D01*
X96157680Y-122250234D01*
X96169364Y-122267721D01*
X96194155Y-122340756D01*
X96179107Y-122416402D01*
X96128253Y-122474390D01*
X96055218Y-122499181D01*
X96045474Y-122499500D01*
X89314526Y-122499500D01*
X89240026Y-122479538D01*
X89185488Y-122425000D01*
X89165526Y-122350500D01*
X89185488Y-122276000D01*
X89190636Y-122267721D01*
X89194819Y-122261460D01*
X89202322Y-122250231D01*
X89273973Y-122077251D01*
X89310500Y-121893616D01*
X89310500Y-121106384D01*
X89273973Y-120922749D01*
X89202322Y-120749769D01*
X89098302Y-120594092D01*
X88965908Y-120461698D01*
X88874368Y-120400533D01*
X88810235Y-120357680D01*
X88810226Y-120357675D01*
X88673073Y-120300865D01*
X88637251Y-120286027D01*
X88637249Y-120286026D01*
X88637248Y-120286026D01*
X88453616Y-120249500D01*
X88266384Y-120249500D01*
X88082751Y-120286026D01*
X87909773Y-120357675D01*
X87909764Y-120357680D01*
X87754093Y-120461697D01*
X87748430Y-120466345D01*
X87747482Y-120465189D01*
X87688064Y-120499495D01*
X87610936Y-120499495D01*
X87544141Y-120460931D01*
X87505577Y-120394136D01*
X87500500Y-120355572D01*
X87500500Y-118844428D01*
X87520462Y-118769928D01*
X87575000Y-118715390D01*
X87649500Y-118695428D01*
X87724000Y-118715390D01*
X87748187Y-118733950D01*
X87748430Y-118733655D01*
X87754087Y-118738297D01*
X87754092Y-118738302D01*
X87780081Y-118755667D01*
X87909764Y-118842319D01*
X87909773Y-118842324D01*
X87914853Y-118844428D01*
X88082749Y-118913973D01*
X88266384Y-118950500D01*
X88453616Y-118950500D01*
X88637251Y-118913973D01*
X88810231Y-118842322D01*
X88965908Y-118738302D01*
X89098302Y-118605908D01*
X89202322Y-118450231D01*
X89273973Y-118277251D01*
X89310500Y-118093616D01*
X89310500Y-117306384D01*
X89310500Y-117306383D01*
X96049500Y-117306383D01*
X96049500Y-118093616D01*
X96079785Y-118245874D01*
X96086027Y-118277251D01*
X96091348Y-118290096D01*
X96157675Y-118450226D01*
X96157680Y-118450235D01*
X96206969Y-118524000D01*
X96261698Y-118605908D01*
X96394092Y-118738302D01*
X96420081Y-118755667D01*
X96549764Y-118842319D01*
X96549773Y-118842324D01*
X96554853Y-118844428D01*
X96722749Y-118913973D01*
X96906384Y-118950500D01*
X97093616Y-118950500D01*
X97277251Y-118913973D01*
X97450231Y-118842322D01*
X97605908Y-118738302D01*
X97738302Y-118605908D01*
X97842322Y-118450231D01*
X97913973Y-118277251D01*
X97950500Y-118093616D01*
X97950500Y-117306384D01*
X97913973Y-117122749D01*
X97842322Y-116949769D01*
X97738302Y-116794092D01*
X97625518Y-116681308D01*
X102099500Y-116681308D01*
X102099500Y-117958691D01*
X102134105Y-118132663D01*
X102134106Y-118132667D01*
X102201986Y-118296546D01*
X102201987Y-118296548D01*
X102288675Y-118426284D01*
X102300536Y-118444035D01*
X102425965Y-118569464D01*
X102425968Y-118569466D01*
X102573451Y-118668012D01*
X102573453Y-118668013D01*
X102737334Y-118735894D01*
X102911309Y-118770500D01*
X103088691Y-118770500D01*
X103262666Y-118735894D01*
X103426547Y-118668013D01*
X103574035Y-118569464D01*
X103699464Y-118444035D01*
X103798013Y-118296547D01*
X103798978Y-118294216D01*
X103799902Y-118293011D01*
X103801461Y-118290096D01*
X103801942Y-118290353D01*
X103845929Y-118233027D01*
X103917185Y-118203509D01*
X103993653Y-118213574D01*
X104041992Y-118245872D01*
X104076635Y-118280515D01*
X104076637Y-118280516D01*
X104076638Y-118280517D01*
X104111989Y-118300927D01*
X104207865Y-118356281D01*
X104354234Y-118395500D01*
X104505766Y-118395500D01*
X104652135Y-118356281D01*
X104783365Y-118280515D01*
X104890515Y-118173365D01*
X104966281Y-118042135D01*
X105005500Y-117895766D01*
X105005500Y-117744234D01*
X105005499Y-117744230D01*
X109634500Y-117744230D01*
X109634500Y-117895769D01*
X109654311Y-117969704D01*
X109668084Y-118021106D01*
X109673720Y-118042137D01*
X109749482Y-118173361D01*
X109749483Y-118173362D01*
X109749485Y-118173365D01*
X109856635Y-118280515D01*
X109856637Y-118280516D01*
X109856638Y-118280517D01*
X109891989Y-118300927D01*
X109987865Y-118356281D01*
X110134234Y-118395500D01*
X110285766Y-118395500D01*
X110432135Y-118356281D01*
X110563365Y-118280515D01*
X110598006Y-118245873D01*
X110664796Y-118207312D01*
X110741924Y-118207311D01*
X110808720Y-118245874D01*
X110838340Y-118290201D01*
X110838539Y-118290096D01*
X110839612Y-118292105D01*
X110841016Y-118294205D01*
X110841984Y-118296542D01*
X110841987Y-118296548D01*
X110928675Y-118426284D01*
X110940536Y-118444035D01*
X111065965Y-118569464D01*
X111065968Y-118569466D01*
X111213451Y-118668012D01*
X111213453Y-118668013D01*
X111377334Y-118735894D01*
X111551309Y-118770500D01*
X111728691Y-118770500D01*
X111902666Y-118735894D01*
X112066547Y-118668013D01*
X112214035Y-118569464D01*
X112339464Y-118444035D01*
X112438013Y-118296547D01*
X112505894Y-118132666D01*
X112540500Y-117958691D01*
X112540500Y-116681309D01*
X112537523Y-116666345D01*
X112523160Y-116594136D01*
X112505894Y-116507334D01*
X112438013Y-116343453D01*
X112339464Y-116195965D01*
X112214035Y-116070536D01*
X112214031Y-116070533D01*
X112066548Y-115971987D01*
X112066546Y-115971986D01*
X111902667Y-115904106D01*
X111902663Y-115904105D01*
X111728691Y-115869500D01*
X111551309Y-115869500D01*
X111377336Y-115904105D01*
X111377332Y-115904106D01*
X111213453Y-115971986D01*
X111213451Y-115971987D01*
X111065968Y-116070533D01*
X111065963Y-116070537D01*
X110940537Y-116195963D01*
X110940533Y-116195968D01*
X110841987Y-116343451D01*
X110841986Y-116343453D01*
X110774106Y-116507332D01*
X110774105Y-116507336D01*
X110739500Y-116681308D01*
X110739500Y-117203100D01*
X110719538Y-117277600D01*
X110665000Y-117332138D01*
X110590500Y-117352100D01*
X110516000Y-117332138D01*
X110432137Y-117283720D01*
X110432136Y-117283719D01*
X110432135Y-117283719D01*
X110378561Y-117269364D01*
X110285769Y-117244500D01*
X110285766Y-117244500D01*
X110134234Y-117244500D01*
X110134230Y-117244500D01*
X110010702Y-117277600D01*
X109987865Y-117283719D01*
X109987864Y-117283719D01*
X109987862Y-117283720D01*
X109856638Y-117359482D01*
X109749482Y-117466638D01*
X109673720Y-117597862D01*
X109634500Y-117744230D01*
X105005499Y-117744230D01*
X104966281Y-117597865D01*
X104890515Y-117466635D01*
X104783365Y-117359485D01*
X104783362Y-117359483D01*
X104783361Y-117359482D01*
X104652137Y-117283720D01*
X104652136Y-117283719D01*
X104652135Y-117283719D01*
X104598561Y-117269364D01*
X104505769Y-117244500D01*
X104505766Y-117244500D01*
X104354234Y-117244500D01*
X104354230Y-117244500D01*
X104230702Y-117277600D01*
X104207865Y-117283719D01*
X104207864Y-117283719D01*
X104207862Y-117283720D01*
X104124000Y-117332138D01*
X104049500Y-117352100D01*
X103975000Y-117332138D01*
X103920462Y-117277600D01*
X103900500Y-117203100D01*
X103900500Y-116681308D01*
X103883160Y-116594136D01*
X103865894Y-116507334D01*
X103798013Y-116343453D01*
X103699464Y-116195965D01*
X103574035Y-116070536D01*
X103574031Y-116070533D01*
X103426548Y-115971987D01*
X103426546Y-115971986D01*
X103262667Y-115904106D01*
X103262663Y-115904105D01*
X103088691Y-115869500D01*
X102911309Y-115869500D01*
X102737336Y-115904105D01*
X102737332Y-115904106D01*
X102573453Y-115971986D01*
X102573451Y-115971987D01*
X102425968Y-116070533D01*
X102425963Y-116070537D01*
X102300537Y-116195963D01*
X102300533Y-116195968D01*
X102201987Y-116343451D01*
X102201986Y-116343453D01*
X102134106Y-116507332D01*
X102134105Y-116507336D01*
X102099500Y-116681308D01*
X97625518Y-116681308D01*
X97605908Y-116661698D01*
X97554015Y-116627024D01*
X97450235Y-116557680D01*
X97450226Y-116557675D01*
X97313073Y-116500865D01*
X97277251Y-116486027D01*
X97277249Y-116486026D01*
X97277248Y-116486026D01*
X97093616Y-116449500D01*
X96906384Y-116449500D01*
X96722751Y-116486026D01*
X96549773Y-116557675D01*
X96549764Y-116557680D01*
X96394093Y-116661697D01*
X96394088Y-116661701D01*
X96261701Y-116794088D01*
X96261697Y-116794093D01*
X96157680Y-116949764D01*
X96157675Y-116949773D01*
X96086026Y-117122751D01*
X96049500Y-117306383D01*
X89310500Y-117306383D01*
X89273973Y-117122749D01*
X89202322Y-116949769D01*
X89098302Y-116794092D01*
X88965908Y-116661698D01*
X88914015Y-116627024D01*
X88810235Y-116557680D01*
X88810226Y-116557675D01*
X88673073Y-116500865D01*
X88637251Y-116486027D01*
X88637249Y-116486026D01*
X88637248Y-116486026D01*
X88453616Y-116449500D01*
X88266384Y-116449500D01*
X88082751Y-116486026D01*
X87909773Y-116557675D01*
X87909764Y-116557680D01*
X87754093Y-116661697D01*
X87748430Y-116666345D01*
X87747482Y-116665189D01*
X87688064Y-116699495D01*
X87610936Y-116699495D01*
X87544141Y-116660931D01*
X87505577Y-116594136D01*
X87500500Y-116555572D01*
X87500500Y-115859780D01*
X87520462Y-115785280D01*
X87575000Y-115730742D01*
X87649500Y-115710780D01*
X87691069Y-115716696D01*
X87723459Y-115726107D01*
X87797422Y-115747596D01*
X87797427Y-115747597D01*
X87797431Y-115747598D01*
X87834306Y-115750500D01*
X87834313Y-115750500D01*
X89165687Y-115750500D01*
X89165694Y-115750500D01*
X89202569Y-115747598D01*
X89360398Y-115701744D01*
X89501865Y-115618081D01*
X89618081Y-115501865D01*
X89701744Y-115360398D01*
X89747598Y-115202569D01*
X89750500Y-115165694D01*
X89750500Y-113834306D01*
X89747598Y-113797431D01*
X89701744Y-113639602D01*
X89618081Y-113498135D01*
X89501865Y-113381919D01*
X89360398Y-113298256D01*
X89294279Y-113279046D01*
X89202571Y-113252402D01*
X89202572Y-113252402D01*
X89191506Y-113251531D01*
X89165694Y-113249500D01*
X87834306Y-113249500D01*
X87809722Y-113251434D01*
X87797428Y-113252402D01*
X87691070Y-113283303D01*
X87613959Y-113284918D01*
X87546371Y-113247761D01*
X87506416Y-113181789D01*
X87500500Y-113140219D01*
X87500500Y-109257442D01*
X87520462Y-109182942D01*
X87575000Y-109128404D01*
X87649500Y-109108442D01*
X87724000Y-109128404D01*
X87778538Y-109182942D01*
X87787154Y-109200415D01*
X87810776Y-109257442D01*
X87836778Y-109320217D01*
X87930184Y-109482000D01*
X87958064Y-109530289D01*
X88105735Y-109722738D01*
X88277262Y-109894265D01*
X88469711Y-110041936D01*
X88679788Y-110163224D01*
X88903900Y-110256054D01*
X89138211Y-110318838D01*
X89138217Y-110318838D01*
X89138218Y-110318839D01*
X89203600Y-110327446D01*
X89378712Y-110350500D01*
X89621288Y-110350500D01*
X89861789Y-110318838D01*
X90096100Y-110256054D01*
X90320212Y-110163224D01*
X90530289Y-110041936D01*
X90722738Y-109894265D01*
X90894265Y-109722738D01*
X91041936Y-109530289D01*
X91163224Y-109320212D01*
X91256054Y-109096100D01*
X91318838Y-108861789D01*
X91350500Y-108621288D01*
X91350500Y-108378712D01*
X91318838Y-108138211D01*
X91256054Y-107903900D01*
X91163224Y-107679788D01*
X91041936Y-107469711D01*
X90894265Y-107277262D01*
X90722738Y-107105735D01*
X90530289Y-106958064D01*
X90341217Y-106848903D01*
X90320216Y-106836778D01*
X90320214Y-106836777D01*
X90320212Y-106836776D01*
X90149126Y-106765910D01*
X90096103Y-106743947D01*
X90096101Y-106743946D01*
X90096100Y-106743946D01*
X89861789Y-106681162D01*
X89861787Y-106681161D01*
X89861781Y-106681160D01*
X89621293Y-106649500D01*
X89621288Y-106649500D01*
X89378712Y-106649500D01*
X89378706Y-106649500D01*
X89138218Y-106681160D01*
X88903896Y-106743947D01*
X88679783Y-106836778D01*
X88469712Y-106958063D01*
X88469711Y-106958064D01*
X88277262Y-107105735D01*
X88277260Y-107105736D01*
X88277256Y-107105740D01*
X88105740Y-107277256D01*
X87958063Y-107469712D01*
X87836778Y-107679783D01*
X87787158Y-107799577D01*
X87740205Y-107860767D01*
X87668948Y-107890282D01*
X87592480Y-107880215D01*
X87531290Y-107833262D01*
X87501775Y-107762005D01*
X87500500Y-107742557D01*
X87500500Y-95056460D01*
X88894500Y-95056460D01*
X88894500Y-95253539D01*
X88932948Y-95446834D01*
X88932949Y-95446836D01*
X89008367Y-95628912D01*
X89008368Y-95628915D01*
X89040194Y-95676545D01*
X89117861Y-95792782D01*
X89257218Y-95932139D01*
X89288396Y-95952972D01*
X89339250Y-96010959D01*
X89354297Y-96086605D01*
X89329505Y-96159640D01*
X89281464Y-96205110D01*
X89143138Y-96286916D01*
X89143133Y-96286920D01*
X89026920Y-96403133D01*
X89026918Y-96403136D01*
X88943257Y-96544599D01*
X88897402Y-96702428D01*
X88897402Y-96702431D01*
X88894500Y-96739306D01*
X88894500Y-97570694D01*
X88896757Y-97599374D01*
X88897402Y-97607571D01*
X88924046Y-97699279D01*
X88943256Y-97765398D01*
X89026919Y-97906865D01*
X89143135Y-98023081D01*
X89284602Y-98106744D01*
X89442428Y-98152597D01*
X89442427Y-98152597D01*
X89442431Y-98152598D01*
X89479306Y-98155500D01*
X89479313Y-98155500D01*
X90860687Y-98155500D01*
X90860694Y-98155500D01*
X90897569Y-98152598D01*
X91055398Y-98106744D01*
X91196865Y-98023081D01*
X91313081Y-97906865D01*
X91396744Y-97765398D01*
X91442598Y-97607569D01*
X91445500Y-97570694D01*
X91445500Y-96739306D01*
X91442598Y-96702431D01*
X91396744Y-96544602D01*
X91313081Y-96403135D01*
X91196865Y-96286919D01*
X91196863Y-96286918D01*
X91196857Y-96286913D01*
X91058536Y-96205110D01*
X91004572Y-96150004D01*
X90985391Y-96075299D01*
X91006133Y-96001013D01*
X91051602Y-95952972D01*
X91082782Y-95932139D01*
X91222139Y-95792782D01*
X91331632Y-95628914D01*
X91407051Y-95446835D01*
X91445500Y-95253541D01*
X91445500Y-95056459D01*
X91407051Y-94863165D01*
X91331632Y-94681086D01*
X91330550Y-94679467D01*
X91246739Y-94554035D01*
X91222139Y-94517218D01*
X91082782Y-94377861D01*
X91027911Y-94341197D01*
X90918915Y-94268368D01*
X90918912Y-94268367D01*
X90736836Y-94192949D01*
X90736834Y-94192948D01*
X90581989Y-94162147D01*
X90543541Y-94154500D01*
X89796459Y-94154500D01*
X89764389Y-94160878D01*
X89603165Y-94192948D01*
X89603163Y-94192949D01*
X89421087Y-94268367D01*
X89421084Y-94268368D01*
X89257219Y-94377860D01*
X89257214Y-94377864D01*
X89117864Y-94517214D01*
X89117860Y-94517219D01*
X89008368Y-94681084D01*
X89008367Y-94681087D01*
X88932949Y-94863163D01*
X88932948Y-94863165D01*
X88894500Y-95056460D01*
X87500500Y-95056460D01*
X87500500Y-89251006D01*
X94764500Y-89251006D01*
X94764500Y-101883997D01*
X94791419Y-102019327D01*
X94791420Y-102019329D01*
X94844220Y-102146802D01*
X94844223Y-102146808D01*
X94844225Y-102146811D01*
X94920886Y-102261543D01*
X106868457Y-114209114D01*
X106983189Y-114285775D01*
X106983193Y-114285776D01*
X106983197Y-114285779D01*
X107085175Y-114328019D01*
X107110672Y-114338580D01*
X107246006Y-114365500D01*
X107246010Y-114365500D01*
X107383994Y-114365500D01*
X107519329Y-114338580D01*
X107599717Y-114305281D01*
X107646807Y-114285777D01*
X107646808Y-114285776D01*
X107646811Y-114285775D01*
X107761543Y-114209114D01*
X107859114Y-114111543D01*
X107935775Y-113996811D01*
X107988580Y-113869329D01*
X108015500Y-113733994D01*
X108015500Y-113596006D01*
X107988580Y-113460672D01*
X107950757Y-113369358D01*
X107935779Y-113333197D01*
X107935771Y-113333182D01*
X107931825Y-113327277D01*
X107907035Y-113254241D01*
X107922084Y-113178595D01*
X107972939Y-113120609D01*
X108045975Y-113095819D01*
X108055716Y-113095500D01*
X108653993Y-113095500D01*
X108789328Y-113068580D01*
X108916811Y-113015775D01*
X109031542Y-112939114D01*
X109129114Y-112841542D01*
X109205775Y-112726811D01*
X109258580Y-112599328D01*
X109285500Y-112463993D01*
X109285500Y-112326007D01*
X109258580Y-112190672D01*
X109205775Y-112063189D01*
X109129114Y-111948458D01*
X109031542Y-111850886D01*
X109031538Y-111850883D01*
X108916815Y-111774227D01*
X108916809Y-111774224D01*
X108789329Y-111721420D01*
X108789325Y-111721419D01*
X108653993Y-111694500D01*
X107529661Y-111694500D01*
X107455161Y-111674538D01*
X107424302Y-111650859D01*
X97010141Y-101236698D01*
X96971577Y-101169903D01*
X96966500Y-101131339D01*
X96966500Y-95161307D01*
X99175500Y-95161307D01*
X99175500Y-95338692D01*
X99197010Y-95446835D01*
X99210105Y-95512666D01*
X99277988Y-95676547D01*
X99376536Y-95824036D01*
X99501964Y-95949464D01*
X99649453Y-96048012D01*
X99813334Y-96115895D01*
X99987308Y-96150500D01*
X100164692Y-96150500D01*
X100338666Y-96115895D01*
X100502547Y-96048012D01*
X100650036Y-95949464D01*
X101675359Y-94924141D01*
X101742154Y-94885577D01*
X101780718Y-94880500D01*
X104216049Y-94880500D01*
X104390023Y-94845895D01*
X104471963Y-94811953D01*
X104553904Y-94778013D01*
X104642316Y-94718936D01*
X104701393Y-94679464D01*
X105461821Y-93919035D01*
X105560370Y-93771546D01*
X105628252Y-93607666D01*
X105662857Y-93433691D01*
X105662857Y-93256308D01*
X105628252Y-93082334D01*
X105560370Y-92918453D01*
X105461821Y-92770964D01*
X105336393Y-92645536D01*
X105287230Y-92612686D01*
X105188908Y-92546989D01*
X105188899Y-92546984D01*
X105075560Y-92500038D01*
X105025023Y-92479105D01*
X105025021Y-92479104D01*
X105025020Y-92479104D01*
X104851049Y-92444500D01*
X104673666Y-92444500D01*
X104499693Y-92479104D01*
X104499691Y-92479105D01*
X104335815Y-92546984D01*
X104335806Y-92546989D01*
X104188323Y-92645535D01*
X104188318Y-92645539D01*
X103797998Y-93035859D01*
X103731203Y-93074423D01*
X103692639Y-93079500D01*
X101257308Y-93079500D01*
X101083336Y-93114104D01*
X101083330Y-93114106D01*
X101001392Y-93148045D01*
X101001393Y-93148046D01*
X100919456Y-93181985D01*
X100831040Y-93241063D01*
X100831039Y-93241064D01*
X100771965Y-93280535D01*
X100771963Y-93280536D01*
X99376536Y-94675963D01*
X99376535Y-94675965D01*
X99277987Y-94823454D01*
X99210104Y-94987336D01*
X99175500Y-95161307D01*
X96966500Y-95161307D01*
X96966500Y-90775874D01*
X96986462Y-90701374D01*
X97010141Y-90670515D01*
X97409374Y-90271282D01*
X98334113Y-89346543D01*
X98410774Y-89231812D01*
X98463580Y-89104329D01*
X98490499Y-88968994D01*
X98490499Y-88831007D01*
X98463580Y-88695672D01*
X98410775Y-88568192D01*
X98410771Y-88568183D01*
X98336935Y-88457681D01*
X98334113Y-88453457D01*
X98236543Y-88355887D01*
X98213534Y-88340513D01*
X98121816Y-88279228D01*
X98121806Y-88279223D01*
X97994333Y-88226422D01*
X97994332Y-88226421D01*
X97994328Y-88226420D01*
X97858993Y-88199501D01*
X97721006Y-88199501D01*
X97585675Y-88226419D01*
X97585672Y-88226419D01*
X97585671Y-88226420D01*
X97585669Y-88226420D01*
X97585665Y-88226422D01*
X97458192Y-88279223D01*
X97458180Y-88279230D01*
X97343460Y-88355884D01*
X97343453Y-88355890D01*
X96829538Y-88869804D01*
X96762743Y-88908368D01*
X96685615Y-88908368D01*
X96618820Y-88869804D01*
X96580256Y-88803009D01*
X96578042Y-88793513D01*
X96558580Y-88695671D01*
X96548826Y-88672124D01*
X96505777Y-88568192D01*
X96467279Y-88510576D01*
X96429114Y-88453457D01*
X96331543Y-88355886D01*
X96273391Y-88317030D01*
X96216807Y-88279222D01*
X96089330Y-88226420D01*
X96089326Y-88226419D01*
X95953994Y-88199500D01*
X95816006Y-88199500D01*
X95816002Y-88199500D01*
X95680672Y-88226419D01*
X95680670Y-88226420D01*
X95553197Y-88279220D01*
X95553184Y-88279228D01*
X95438458Y-88355885D01*
X95438453Y-88355889D01*
X94920886Y-88873456D01*
X94920885Y-88873458D01*
X94857051Y-88968994D01*
X94857050Y-88968996D01*
X94844225Y-88988188D01*
X94844221Y-88988195D01*
X94791420Y-89115670D01*
X94791419Y-89115674D01*
X94764500Y-89251006D01*
X87500500Y-89251006D01*
X87500500Y-84270000D01*
X89636838Y-84270000D01*
X89640613Y-84301442D01*
X89696079Y-84442096D01*
X89787433Y-84562562D01*
X89787437Y-84562566D01*
X89907904Y-84653920D01*
X89907903Y-84653920D01*
X90048556Y-84709386D01*
X90136939Y-84719999D01*
X90136941Y-84720000D01*
X90355000Y-84720000D01*
X91255000Y-84720000D01*
X91473059Y-84720000D01*
X91473060Y-84719999D01*
X91561443Y-84709386D01*
X91702096Y-84653920D01*
X91822562Y-84562566D01*
X91822566Y-84562562D01*
X91913920Y-84442096D01*
X91969386Y-84301442D01*
X91973162Y-84270000D01*
X91255000Y-84270000D01*
X91255000Y-84720000D01*
X90355000Y-84720000D01*
X90355000Y-84270000D01*
X89636838Y-84270000D01*
X87500500Y-84270000D01*
X87500500Y-83767339D01*
X90405000Y-83767339D01*
X90405000Y-83872661D01*
X90432259Y-83974394D01*
X90484920Y-84065606D01*
X90559394Y-84140080D01*
X90650606Y-84192741D01*
X90752339Y-84220000D01*
X90857661Y-84220000D01*
X90959394Y-84192741D01*
X91050606Y-84140080D01*
X91125080Y-84065606D01*
X91177741Y-83974394D01*
X91205000Y-83872661D01*
X91205000Y-83767339D01*
X91177741Y-83665606D01*
X91125080Y-83574394D01*
X91050606Y-83499920D01*
X90959394Y-83447259D01*
X90857661Y-83420000D01*
X90752339Y-83420000D01*
X90650606Y-83447259D01*
X90559394Y-83499920D01*
X90484920Y-83574394D01*
X90432259Y-83665606D01*
X90405000Y-83767339D01*
X87500500Y-83767339D01*
X87500500Y-68576460D01*
X89529500Y-68576460D01*
X89529500Y-68773539D01*
X89567948Y-68966834D01*
X89567949Y-68966836D01*
X89643367Y-69148912D01*
X89643368Y-69148915D01*
X89716197Y-69257911D01*
X89752861Y-69312782D01*
X89892218Y-69452139D01*
X90026986Y-69542188D01*
X90040340Y-69551111D01*
X90091193Y-69609100D01*
X90106240Y-69684746D01*
X90081448Y-69757781D01*
X90040339Y-69798889D01*
X89892220Y-69897860D01*
X89892214Y-69897864D01*
X89752864Y-70037214D01*
X89752860Y-70037219D01*
X89643368Y-70201084D01*
X89643367Y-70201087D01*
X89567949Y-70383163D01*
X89567948Y-70383165D01*
X89529500Y-70576460D01*
X89529500Y-70773539D01*
X89567948Y-70966834D01*
X89567949Y-70966836D01*
X89643367Y-71148912D01*
X89643368Y-71148915D01*
X89716197Y-71257911D01*
X89752861Y-71312782D01*
X89892218Y-71452139D01*
X89923396Y-71472972D01*
X89974250Y-71530959D01*
X89989297Y-71606605D01*
X89964505Y-71679640D01*
X89916464Y-71725110D01*
X89778138Y-71806916D01*
X89778133Y-71806920D01*
X89661920Y-71923133D01*
X89661918Y-71923136D01*
X89578257Y-72064599D01*
X89532402Y-72222428D01*
X89532402Y-72222431D01*
X89529500Y-72259306D01*
X89529500Y-73090694D01*
X89531757Y-73119374D01*
X89532402Y-73127571D01*
X89559046Y-73219279D01*
X89578256Y-73285398D01*
X89661919Y-73426865D01*
X89778135Y-73543081D01*
X89919602Y-73626744D01*
X90077428Y-73672597D01*
X90077427Y-73672597D01*
X90077431Y-73672598D01*
X90114306Y-73675500D01*
X90114313Y-73675500D01*
X91495687Y-73675500D01*
X91495694Y-73675500D01*
X91532569Y-73672598D01*
X91690398Y-73626744D01*
X91831865Y-73543081D01*
X91948081Y-73426865D01*
X92031744Y-73285398D01*
X92077598Y-73127569D01*
X92080500Y-73090694D01*
X92080500Y-72259306D01*
X92077598Y-72222431D01*
X92031744Y-72064602D01*
X91948081Y-71923135D01*
X91831865Y-71806919D01*
X91831863Y-71806918D01*
X91831857Y-71806913D01*
X91693536Y-71725110D01*
X91639572Y-71670004D01*
X91620391Y-71595299D01*
X91641133Y-71521013D01*
X91686602Y-71472972D01*
X91717782Y-71452139D01*
X91857139Y-71312782D01*
X91966632Y-71148914D01*
X92042051Y-70966835D01*
X92080500Y-70773541D01*
X92080500Y-70576459D01*
X92042051Y-70383165D01*
X91966632Y-70201086D01*
X91857139Y-70037218D01*
X91717782Y-69897861D01*
X91569660Y-69798889D01*
X91518806Y-69740901D01*
X91503759Y-69665255D01*
X91528551Y-69592220D01*
X91569660Y-69551111D01*
X91582930Y-69542243D01*
X91717782Y-69452139D01*
X91857139Y-69312782D01*
X91966632Y-69148914D01*
X92042051Y-68966835D01*
X92080500Y-68773541D01*
X92080500Y-68576459D01*
X92042051Y-68383165D01*
X91966632Y-68201086D01*
X91857139Y-68037218D01*
X91717782Y-67897861D01*
X91655595Y-67856309D01*
X91553915Y-67788368D01*
X91553913Y-67788367D01*
X91481246Y-67758268D01*
X91420056Y-67711316D01*
X91390540Y-67640059D01*
X91400607Y-67563591D01*
X91447559Y-67502401D01*
X91481246Y-67482952D01*
X91506309Y-67472570D01*
X91506311Y-67472569D01*
X91653715Y-67374076D01*
X91653720Y-67374072D01*
X91779072Y-67248720D01*
X91779076Y-67248715D01*
X91861741Y-67125000D01*
X89748259Y-67125000D01*
X89830923Y-67248715D01*
X89830927Y-67248720D01*
X89956279Y-67374072D01*
X89956284Y-67374076D01*
X90103686Y-67472568D01*
X90128755Y-67482952D01*
X90189944Y-67529905D01*
X90219459Y-67601163D01*
X90209392Y-67677631D01*
X90162439Y-67738820D01*
X90128754Y-67758268D01*
X90056083Y-67788368D01*
X89892219Y-67897860D01*
X89892214Y-67897864D01*
X89752864Y-68037214D01*
X89752860Y-68037219D01*
X89643368Y-68201084D01*
X89643367Y-68201087D01*
X89567949Y-68383163D01*
X89567948Y-68383165D01*
X89529500Y-68576460D01*
X87500500Y-68576460D01*
X87500500Y-66622339D01*
X90405000Y-66622339D01*
X90405000Y-66727661D01*
X90432259Y-66829394D01*
X90484920Y-66920606D01*
X90559394Y-66995080D01*
X90650606Y-67047741D01*
X90752339Y-67075000D01*
X90857661Y-67075000D01*
X90959394Y-67047741D01*
X91050606Y-66995080D01*
X91125080Y-66920606D01*
X91177741Y-66829394D01*
X91205000Y-66727661D01*
X91205000Y-66622339D01*
X91177741Y-66520606D01*
X91125080Y-66429394D01*
X91050606Y-66354920D01*
X90959394Y-66302259D01*
X90857661Y-66275000D01*
X90752339Y-66275000D01*
X90650606Y-66302259D01*
X90559394Y-66354920D01*
X90484920Y-66429394D01*
X90432259Y-66520606D01*
X90405000Y-66622339D01*
X87500500Y-66622339D01*
X87500500Y-66225000D01*
X89748259Y-66225000D01*
X90355000Y-66225000D01*
X91255000Y-66225000D01*
X91861740Y-66225000D01*
X91779076Y-66101284D01*
X91779072Y-66101279D01*
X91653720Y-65975927D01*
X91653715Y-65975923D01*
X91506312Y-65877430D01*
X91342517Y-65809585D01*
X91255000Y-65792177D01*
X91255000Y-66225000D01*
X90355000Y-66225000D01*
X90355000Y-65792177D01*
X90267482Y-65809585D01*
X90103687Y-65877430D01*
X89956284Y-65975923D01*
X89956279Y-65975927D01*
X89830927Y-66101279D01*
X89830923Y-66101284D01*
X89748259Y-66225000D01*
X87500500Y-66225000D01*
X87500500Y-54806000D01*
X103753515Y-54806000D01*
X103774578Y-54859411D01*
X103863855Y-54977141D01*
X103863858Y-54977144D01*
X103981589Y-55066421D01*
X104097499Y-55112130D01*
X104097500Y-55112130D01*
X104097500Y-54806000D01*
X103753515Y-54806000D01*
X87500500Y-54806000D01*
X87500500Y-53906000D01*
X103753515Y-53906000D01*
X104097500Y-53906000D01*
X104097500Y-53599868D01*
X103981589Y-53645577D01*
X103981589Y-53645578D01*
X103863858Y-53734855D01*
X103863855Y-53734858D01*
X103774578Y-53852588D01*
X103753515Y-53906000D01*
X87500500Y-53906000D01*
X87500500Y-53008794D01*
X103506001Y-53008794D01*
X103508909Y-53033874D01*
X103554212Y-53136477D01*
X103633521Y-53215786D01*
X103736128Y-53261091D01*
X103761204Y-53263999D01*
X104010000Y-53263999D01*
X104910000Y-53263999D01*
X105158795Y-53263999D01*
X105183874Y-53261090D01*
X105286477Y-53215787D01*
X105286478Y-53215787D01*
X105365786Y-53136478D01*
X105411091Y-53033871D01*
X105414000Y-53008795D01*
X105414000Y-52760000D01*
X104910000Y-52760000D01*
X104910000Y-53263999D01*
X104010000Y-53263999D01*
X104010000Y-52760000D01*
X103506001Y-52760000D01*
X103506001Y-53008794D01*
X87500500Y-53008794D01*
X87500500Y-52257339D01*
X104060000Y-52257339D01*
X104060000Y-52362661D01*
X104087259Y-52464394D01*
X104139920Y-52555606D01*
X104214394Y-52630080D01*
X104305606Y-52682741D01*
X104407339Y-52710000D01*
X104512661Y-52710000D01*
X104614394Y-52682741D01*
X104705606Y-52630080D01*
X104780080Y-52555606D01*
X104832741Y-52464394D01*
X104860000Y-52362661D01*
X104860000Y-52257339D01*
X104832741Y-52155606D01*
X104780080Y-52064394D01*
X104705606Y-51989920D01*
X104614394Y-51937259D01*
X104512661Y-51910000D01*
X104407339Y-51910000D01*
X104305606Y-51937259D01*
X104214394Y-51989920D01*
X104139920Y-52064394D01*
X104087259Y-52155606D01*
X104060000Y-52257339D01*
X87500500Y-52257339D01*
X87500500Y-51611204D01*
X103506000Y-51611204D01*
X103506000Y-51860000D01*
X104010000Y-51860000D01*
X104910000Y-51860000D01*
X105413999Y-51860000D01*
X105413999Y-51611205D01*
X105411090Y-51586125D01*
X105365787Y-51483522D01*
X105286478Y-51404213D01*
X105183871Y-51358908D01*
X105158796Y-51356000D01*
X104910000Y-51356000D01*
X104910000Y-51860000D01*
X104010000Y-51860000D01*
X104010000Y-51356000D01*
X103761205Y-51356000D01*
X103736125Y-51358909D01*
X103633522Y-51404212D01*
X103633522Y-51404213D01*
X103554213Y-51483521D01*
X103508908Y-51586128D01*
X103506000Y-51611204D01*
X87500500Y-51611204D01*
X87500500Y-48388537D01*
X101489500Y-48388537D01*
X101489500Y-48611462D01*
X101518593Y-48832447D01*
X101518596Y-48832464D01*
X101576288Y-49047777D01*
X101576288Y-49047778D01*
X101661598Y-49253733D01*
X101773049Y-49446770D01*
X101773051Y-49446773D01*
X101773052Y-49446774D01*
X101908753Y-49623624D01*
X102066376Y-49781247D01*
X102243226Y-49916948D01*
X102243229Y-49916950D01*
X102436266Y-50028401D01*
X102436269Y-50028402D01*
X102436274Y-50028405D01*
X102601030Y-50096649D01*
X102642221Y-50113711D01*
X102749878Y-50142557D01*
X102857537Y-50171404D01*
X103078543Y-50200500D01*
X103301457Y-50200500D01*
X103522463Y-50171404D01*
X103737777Y-50113711D01*
X103737778Y-50113711D01*
X103737779Y-50113710D01*
X103737781Y-50113710D01*
X103943726Y-50028405D01*
X104136774Y-49916948D01*
X104313624Y-49781247D01*
X104471247Y-49623624D01*
X104606948Y-49446774D01*
X104718405Y-49253726D01*
X104803710Y-49047781D01*
X104861404Y-48832463D01*
X104890500Y-48611457D01*
X104890500Y-48388543D01*
X104890499Y-48388537D01*
X109109500Y-48388537D01*
X109109500Y-48611462D01*
X109138593Y-48832447D01*
X109138596Y-48832464D01*
X109196288Y-49047777D01*
X109196288Y-49047778D01*
X109281598Y-49253733D01*
X109393049Y-49446770D01*
X109393051Y-49446773D01*
X109393052Y-49446774D01*
X109528753Y-49623624D01*
X109686376Y-49781247D01*
X109863226Y-49916948D01*
X109863229Y-49916950D01*
X110056266Y-50028401D01*
X110056269Y-50028402D01*
X110056274Y-50028405D01*
X110221030Y-50096649D01*
X110262221Y-50113711D01*
X110369878Y-50142557D01*
X110477537Y-50171404D01*
X110698543Y-50200500D01*
X110921457Y-50200500D01*
X111142463Y-50171404D01*
X111357777Y-50113711D01*
X111357778Y-50113711D01*
X111357779Y-50113710D01*
X111357781Y-50113710D01*
X111563726Y-50028405D01*
X111756774Y-49916948D01*
X111933624Y-49781247D01*
X112091247Y-49623624D01*
X112226948Y-49446774D01*
X112338405Y-49253726D01*
X112423710Y-49047781D01*
X112481404Y-48832463D01*
X112510500Y-48611457D01*
X112510500Y-48388543D01*
X112481404Y-48167537D01*
X112423710Y-47952219D01*
X112338405Y-47746274D01*
X112338402Y-47746269D01*
X112338401Y-47746266D01*
X112226950Y-47553229D01*
X112091245Y-47376374D01*
X111933625Y-47218754D01*
X111829989Y-47139232D01*
X111756774Y-47083052D01*
X111756773Y-47083051D01*
X111756770Y-47083049D01*
X111563733Y-46971598D01*
X111357778Y-46886288D01*
X111142464Y-46828596D01*
X111142447Y-46828593D01*
X110921462Y-46799500D01*
X110921457Y-46799500D01*
X110698543Y-46799500D01*
X110698537Y-46799500D01*
X110477552Y-46828593D01*
X110477535Y-46828596D01*
X110262222Y-46886288D01*
X110262221Y-46886288D01*
X110056266Y-46971598D01*
X109863229Y-47083049D01*
X109686374Y-47218754D01*
X109528754Y-47376374D01*
X109393049Y-47553229D01*
X109281598Y-47746266D01*
X109196288Y-47952221D01*
X109196288Y-47952222D01*
X109138596Y-48167535D01*
X109138593Y-48167552D01*
X109109500Y-48388537D01*
X104890499Y-48388537D01*
X104861404Y-48167537D01*
X104803710Y-47952219D01*
X104718405Y-47746274D01*
X104718402Y-47746269D01*
X104718401Y-47746266D01*
X104606950Y-47553229D01*
X104471245Y-47376374D01*
X104313625Y-47218754D01*
X104209989Y-47139232D01*
X104136774Y-47083052D01*
X104136773Y-47083051D01*
X104136770Y-47083049D01*
X103943733Y-46971598D01*
X103737778Y-46886288D01*
X103522464Y-46828596D01*
X103522447Y-46828593D01*
X103301462Y-46799500D01*
X103301457Y-46799500D01*
X103078543Y-46799500D01*
X103078537Y-46799500D01*
X102857552Y-46828593D01*
X102857535Y-46828596D01*
X102642222Y-46886288D01*
X102642221Y-46886288D01*
X102436266Y-46971598D01*
X102243229Y-47083049D01*
X102066374Y-47218754D01*
X101908754Y-47376374D01*
X101773049Y-47553229D01*
X101661598Y-47746266D01*
X101576288Y-47952221D01*
X101576288Y-47952222D01*
X101518596Y-48167535D01*
X101518593Y-48167552D01*
X101489500Y-48388537D01*
X87500500Y-48388537D01*
X87500500Y-47257442D01*
X87520462Y-47182942D01*
X87575000Y-47128404D01*
X87649500Y-47108442D01*
X87724000Y-47128404D01*
X87778538Y-47182942D01*
X87787154Y-47200415D01*
X87810776Y-47257442D01*
X87836778Y-47320217D01*
X87869201Y-47376374D01*
X87958064Y-47530289D01*
X88105735Y-47722738D01*
X88277262Y-47894265D01*
X88469711Y-48041936D01*
X88679788Y-48163224D01*
X88903900Y-48256054D01*
X89138211Y-48318838D01*
X89138217Y-48318838D01*
X89138218Y-48318839D01*
X89203600Y-48327446D01*
X89378712Y-48350500D01*
X89621288Y-48350500D01*
X89861789Y-48318838D01*
X90096100Y-48256054D01*
X90320212Y-48163224D01*
X90530289Y-48041936D01*
X90722738Y-47894265D01*
X90894265Y-47722738D01*
X91041936Y-47530289D01*
X91163224Y-47320212D01*
X91256054Y-47096100D01*
X91318838Y-46861789D01*
X91350500Y-46621288D01*
X91350500Y-46378712D01*
X91318838Y-46138211D01*
X91256054Y-45903900D01*
X91163224Y-45679788D01*
X91041936Y-45469711D01*
X90894265Y-45277262D01*
X90722738Y-45105735D01*
X90530289Y-44958064D01*
X90385183Y-44874287D01*
X90320216Y-44836778D01*
X90320214Y-44836777D01*
X90320212Y-44836776D01*
X90200422Y-44787157D01*
X90139233Y-44740205D01*
X90109718Y-44668948D01*
X90119785Y-44592480D01*
X90166738Y-44531290D01*
X90237995Y-44501775D01*
X90257443Y-44500500D01*
X123742557Y-44500500D01*
X123817057Y-44520462D01*
G37*
%TD.AperFunction*%
%TD*%
M02*
